<svg width="410" height="141" viewBox="0 0 410 141" fill="none" xmlns="http://www.w3.org/2000/svg">
<path d="M7 135.361V116.351H13.3988C15.5847 116.351 17.2534 116.796 18.4051 117.687C19.5568 118.577 20.1326 119.871 20.1326 121.569C20.1326 122.448 19.9035 123.238 19.4451 123.941C18.9868 124.644 18.317 125.182 17.4356 125.557C18.411 125.815 19.1925 126.336 19.7801 127.121C20.3794 127.906 20.6791 128.854 20.6791 129.967C20.6791 131.724 20.1267 133.065 19.0221 133.99C17.9292 134.904 16.3779 135.361 14.3684 135.361H7ZM10.1025 127.015V132.743H14.4036C16.5072 132.743 17.559 131.782 17.559 129.862C17.559 127.964 16.4954 127.015 14.3684 127.015H10.1025ZM10.1025 124.415H13.3636C15.7962 124.415 17.0125 123.525 17.0125 121.745C17.0125 119.953 15.8667 119.033 13.5751 118.987H10.1025V124.415Z" fill="#817992"/>
<path d="M55.7997 116.351H58.9022V135.361H55.7997V121.499L48.8897 135.361H45.7696V116.351H48.8897V130.23L55.7997 116.351Z" fill="#817992"/>
<path d="M84.4334 132.708L85.3677 131.372C86.3783 129.826 86.96 127.548 87.1128 124.538L87.3772 116.351H98.0243V132.708H100.245V140.947H97.1253V135.361H86.2843V140.947H83.1466L83.1642 132.708H84.4334ZM87.9061 132.708H94.9219V119.356H90.4092L90.2505 123.994C90.086 127.695 89.3045 130.599 87.9061 132.708Z" fill="#817992"/>
<path d="M134.22 135.361C134.032 134.951 133.897 134.26 133.815 133.287C132.71 134.904 131.3 135.712 129.584 135.712C127.857 135.712 126.505 135.232 125.53 134.271C124.566 133.299 124.084 131.935 124.084 130.178C124.084 128.245 124.742 126.711 126.059 125.575C127.375 124.439 129.179 123.859 131.47 123.836H133.762V121.815C133.762 120.679 133.509 119.871 133.004 119.391C132.499 118.911 131.729 118.67 130.695 118.67C129.755 118.67 128.991 118.952 128.403 119.514C127.816 120.064 127.522 120.767 127.522 121.622H124.402C124.402 120.65 124.69 119.725 125.265 118.846C125.841 117.956 126.617 117.259 127.592 116.755C128.568 116.252 129.655 116 130.853 116C132.804 116 134.285 116.486 135.296 117.458C136.318 118.419 136.841 119.824 136.864 121.675V131.267C136.876 132.731 137.076 134.002 137.464 135.079V135.361H134.22ZM130.06 132.883C130.824 132.883 131.553 132.673 132.246 132.251C132.939 131.829 133.445 131.302 133.762 130.67V126.137H131.999C130.518 126.16 129.349 126.494 128.491 127.138C127.633 127.771 127.204 128.661 127.204 129.809C127.204 130.886 127.422 131.671 127.857 132.163C128.292 132.643 129.026 132.883 130.06 132.883Z" fill="#817992"/>
<path d="M162.572 135.361V116.351H168.971C171.157 116.351 172.825 116.796 173.977 117.687C175.129 118.577 175.705 119.871 175.705 121.569C175.705 122.448 175.475 123.238 175.017 123.941C174.559 124.644 173.889 125.182 173.008 125.557C173.983 125.815 174.764 126.336 175.352 127.121C175.951 127.906 176.251 128.854 176.251 129.967C176.251 131.724 175.699 133.065 174.594 133.99C173.501 134.904 171.95 135.361 169.94 135.361H162.572ZM165.674 127.015V132.743H169.976C172.079 132.743 173.131 131.782 173.131 129.862C173.131 127.964 172.067 127.015 169.94 127.015H165.674ZM165.674 124.415H168.936C171.368 124.415 172.584 123.525 172.584 121.745C172.584 119.953 171.439 119.033 169.147 118.987H165.674V124.415Z" fill="#817992"/>
<path d="M214.457 135.361H211.354V127.244H204.479V135.361H201.342V116.351H204.479V124.591H211.354V116.351H214.457V135.361Z" fill="#817992"/>
<path d="M250.318 116.351H253.42V135.361H250.318V121.499L243.407 135.361H240.287V116.351H243.407V130.23L250.318 116.351Z" fill="#817992"/>
<path d="M279.269 116.351H282.406V132.708H289.299V116.351H292.401V132.708H294.411L294.093 141H291.326V135.361H279.269V116.351Z" fill="#817992"/>
<path d="M330.272 118.987H325.072V135.361H321.969V118.987H316.839V116.351H330.272V118.987Z" fill="#817992"/>
<path d="M354.41 135.361V116.351H360.809C362.995 116.351 364.664 116.796 365.815 117.687C366.967 118.577 367.543 119.871 367.543 121.569C367.543 122.448 367.314 123.238 366.855 123.941C366.397 124.644 365.727 125.182 364.846 125.557C365.821 125.815 366.603 126.336 367.19 127.121C367.79 127.906 368.089 128.854 368.089 129.967C368.089 131.724 367.537 133.065 366.432 133.99C365.339 134.904 363.788 135.361 361.779 135.361H354.41ZM357.513 127.015V132.743H361.814C363.917 132.743 364.969 131.782 364.969 129.862C364.969 127.964 363.906 127.015 361.779 127.015H357.513ZM357.513 124.415H360.774C363.207 124.415 364.423 123.525 364.423 121.745C364.423 119.953 363.277 119.033 360.985 118.987H357.513V124.415Z" fill="#817992"/>
<path d="M392.246 124.978C392.246 122.213 392.916 120.029 394.255 118.424C395.607 116.808 397.387 116 399.596 116C401.806 116 403.58 116.785 404.92 118.354C406.271 119.924 406.965 122.061 407 124.767V126.77C407 129.522 406.33 131.7 404.99 133.305C403.651 134.91 401.864 135.712 399.632 135.712C397.422 135.712 395.648 134.933 394.308 133.375C392.98 131.818 392.293 129.709 392.246 127.051V124.978ZM395.366 126.77C395.366 128.725 395.748 130.266 396.512 131.39C397.287 132.503 398.327 133.059 399.632 133.059C402.382 133.059 403.798 131.08 403.88 127.121V124.978C403.88 123.033 403.492 121.499 402.716 120.375C401.941 119.238 400.901 118.67 399.596 118.67C398.315 118.67 397.287 119.238 396.512 120.375C395.748 121.499 395.366 123.027 395.366 124.96V126.77Z" fill="#817992"/>
<g filter="url(#filter0_i)">
<path d="M143.849 64.6904L168.086 1H199.088V94H174.338V36.9279L152.157 94H135.542L113.789 37.8734V94H89.0391V1H119.784L143.849 64.6904Z" fill="#5D3E9F"/>
</g>
<g filter="url(#filter1_i)">
<path d="M74.8236 62.6063C74.1187 72.3456 70.5115 80.0127 64.0019 85.6076C57.5338 91.2025 48.9926 94 38.3782 94C26.7688 94 17.6264 90.1043 10.9509 82.3128C4.31698 74.4799 1 63.746 1 50.111V44.5782C1 35.875 2.5341 28.2079 5.60231 21.5769C8.67052 14.9459 13.0448 9.86898 18.7251 6.34626C24.4469 2.78209 31.0809 1 38.627 1C49.0755 1 57.4924 3.79746 63.8775 9.39238C70.2627 14.9873 73.9529 22.8409 74.948 32.9532H56.2899C55.8339 27.1096 54.1961 22.8824 51.3767 20.2714C48.5987 17.619 44.3488 16.2928 38.627 16.2928C32.4077 16.2928 27.7432 18.5307 24.6335 23.0067C21.5653 27.4412 19.9897 34.3416 19.9068 43.7079V50.5461C19.9068 60.3269 21.3787 67.4759 24.3225 71.9933C27.3078 76.5107 31.9931 78.7694 38.3782 78.7694C44.1415 78.7694 48.4328 77.4639 51.2523 74.8529C54.1132 72.2005 55.7509 68.1183 56.1656 62.6063H74.8236Z" fill="#5D3E9F"/>
</g>
<g filter="url(#filter2_i)">
<path d="M268.479 74.8379H234.867L228.477 94H208.092L242.727 1H260.491L295.318 94H274.933L268.479 74.8379ZM240.043 59.3166H263.303L251.609 24.5055L240.043 59.3166Z" fill="#5D3E9F"/>
<path d="M334.362 55.9952H323.307V94H304.137V1H323.307V38.2383H332.062L354.811 1H378.199L349.507 45.0089L381.202 94H358.325L334.362 55.9952Z" fill="#5D3E9F"/>
<path d="M409 94H389.829V1H409V94Z" fill="#5D3E9F"/>
</g>
<path d="M168.086 0.5H167.741L167.619 0.822172L143.851 63.2802L120.252 0.823272L120.13 0.5H119.784H89.0391H88.5391V1V94V94.5H89.0391H113.789H114.289V94V40.5471L135.076 94.1807L135.2 94.5H135.542H152.157H152.499L152.623 94.1811L173.838 39.5947V94V94.5H174.338H199.088H199.588V94V1V0.5H199.088H168.086Z" stroke="#9D8AC5"/>
<path d="M75.3223 62.6424L75.3611 62.1063H74.8236H56.1656H55.7018L55.667 62.5688C55.2579 68.0073 53.6484 71.9495 50.9126 74.4861C48.2225 76.9772 44.077 78.2694 38.3782 78.2694C32.1269 78.2694 27.6159 76.0688 24.7408 71.7193C21.8781 67.3258 20.4068 60.2973 20.4068 50.5461V43.7102C20.4896 34.38 22.062 27.6023 25.0445 23.2914C28.0464 18.9709 32.545 16.7928 38.627 16.7928C44.2822 16.7928 48.3832 18.1046 51.0314 20.633L51.0313 20.6331L51.0369 20.6382C53.7259 23.1284 55.3402 27.21 55.7915 32.9921L55.8275 33.4532H56.2899H74.948H75.4996L75.4456 32.9042C74.4406 22.6919 70.706 14.7109 64.2071 9.01632C57.7109 3.3242 49.1676 0.5 38.627 0.5C30.9991 0.5 24.2714 2.30245 18.4612 5.9216C12.6903 9.50061 8.25373 14.656 5.14853 21.3669C2.04461 28.0751 0.5 35.8162 0.5 44.5782V50.111C0.5 63.8251 3.83693 74.6868 10.5694 82.636L10.5712 82.6381C17.3548 90.5558 26.6443 94.5 38.3782 94.5C49.0827 94.5 57.7496 91.6769 64.329 85.9858C70.953 80.292 74.6093 72.494 75.3223 62.6424Z" stroke="#9D8AC5"/>
<path d="M228.477 94.5H228.837L228.951 94.1582L235.227 75.3379H268.12L274.459 94.1596L274.574 94.5H274.933H295.318H296.039L295.786 93.8247L260.96 0.824652L260.838 0.5H260.491H242.727H242.379L242.258 0.825499L207.623 93.8255L207.372 94.5H208.092H228.477ZM381.622 93.7284L350.103 45.01L378.618 1.27307L379.122 0.5H378.199H354.811H354.53L354.384 0.739339L331.781 37.7383H323.807V1V0.5H323.307H304.137H303.637V1V94V94.5H304.137H323.307H323.807V94V56.4952H334.086L357.903 94.2667L358.05 94.5H358.325H381.202H382.121L381.622 93.7284ZM409 94.5H409.5V94V1V0.5H409H389.829H389.329V1V94V94.5H389.829H409ZM240.736 58.8166L251.612 26.0834L262.608 58.8166H240.736Z" stroke="#9D8AC5"/>
<g filter="url(#filter3_d)">
<path d="M170.449 12.6034L140.809 88.9104L140.934 88.9946C143.321 90.6023 146.028 91.6758 148.868 92.1417L149.318 92.2156L178.958 15.9086L178.151 15.7464C175.408 15.1952 172.795 14.1287 170.449 12.6034Z" fill="#F4F4F4"/>
<path d="M170.449 12.6034L140.809 88.9104L140.934 88.9946C143.321 90.6023 146.028 91.6758 148.868 92.1417L149.318 92.2156L178.958 15.9086L178.151 15.7464C175.408 15.1952 172.795 14.1287 170.449 12.6034Z" stroke="#E3A65E"/>
</g>
<path d="M142.635 83.9914L151.327 87.2616L149.533 92.0288L147.679 91.6235C145.64 91.1775 143.683 90.415 141.879 89.3636L140.842 88.7586L142.635 83.9914Z" fill="#E3A65E"/>
<rect x="150.636" y="62.9917" width="9.28478" height="5.09349" transform="rotate(20.6191 150.636 62.9917)" fill="#E3A65E"/>
<rect x="167.293" y="19.4121" width="9.80279" height="5.09349" transform="rotate(20.6191 167.293 19.4121)" fill="#E3A65E"/>
<path d="M158.09 60.7121C158.064 60.7795 158.025 60.8356 157.972 60.8803C157.923 60.9237 157.861 60.931 157.787 60.9023C157.735 60.882 157.699 60.8503 157.678 60.8072C157.655 60.7632 157.652 60.7158 157.669 60.6649C157.686 60.6141 157.715 60.5826 157.755 60.5705C157.795 60.5562 157.833 60.5558 157.868 60.5693C157.887 60.5769 157.903 60.5855 157.914 60.5949C157.923 60.6035 157.931 60.6153 157.938 60.6304C157.944 60.6204 157.951 60.6118 157.959 60.6048C157.965 60.597 157.969 60.5887 157.972 60.58C157.991 60.5321 157.962 60.462 157.885 60.3696C157.87 60.3512 157.843 60.3233 157.805 60.2859C157.766 60.2456 157.719 60.1986 157.665 60.145L156.139 60.2921C156.035 60.3019 155.951 60.3055 155.887 60.3031C155.822 60.2977 155.767 60.2913 155.722 60.284L155.65 60.4888L155.506 60.433L155.812 59.6467L155.919 59.6886C155.884 59.7799 155.874 59.85 155.89 59.8988C155.907 59.9454 155.944 59.976 156.001 59.9906C156.057 60.0022 156.126 60.0041 156.209 59.9964L157.015 59.9227C157.08 59.9177 157.143 59.9123 157.205 59.9065C157.268 59.8985 157.332 59.892 157.397 59.887C157.294 59.7897 157.19 59.6915 157.083 59.5925C156.974 59.4926 156.874 59.4024 156.783 59.3218C156.692 59.2391 156.621 59.175 156.568 59.1296C156.512 59.0825 156.453 59.0324 156.394 58.9793C156.335 58.924 156.296 58.8799 156.276 58.8472L156.186 59.1087L156.042 59.053L156.302 58.3842L156.41 58.426C156.383 58.5082 156.377 58.5784 156.392 58.6368C156.405 58.6943 156.435 58.7501 156.485 58.8042C156.532 58.8553 156.594 58.9166 156.668 58.9882L157.739 60.0123C157.888 60.1555 157.995 60.2797 158.06 60.3848C158.125 60.4877 158.135 60.5968 158.09 60.7121ZM158.64 59.1332L158.532 59.0914C158.56 59.007 158.563 58.9433 158.542 58.9002C158.519 58.8562 158.479 58.8217 158.421 58.7967C158.362 58.7687 158.294 58.7399 158.218 58.7104L156.809 58.1628C156.717 58.1274 156.64 58.0937 156.578 58.0618C156.565 58.1018 156.552 58.1418 156.539 58.1818C156.526 58.2218 156.513 58.2618 156.499 58.3018L156.356 58.246L156.641 57.5119L156.749 57.5538C156.72 57.6351 156.716 57.6988 156.738 57.745C156.761 57.7889 156.801 57.8245 156.858 57.8517C156.916 57.8766 156.984 57.9044 157.063 57.9348L157.598 58.1426L157.693 57.8979L157.208 57.2405C157.176 57.1953 157.142 57.1419 157.105 57.0803C157.069 57.0187 157.042 56.9594 157.024 56.9024C157.014 56.9358 157.002 56.97 156.988 57.0048C156.976 57.0374 156.964 57.0704 156.954 57.1039L156.82 57.0519L157.092 56.3505L157.2 56.3923C157.171 56.4862 157.155 56.5737 157.151 56.6548C157.147 56.7358 157.162 56.8208 157.198 56.9097C157.231 56.9978 157.293 57.102 157.384 57.2224L157.769 57.7399C157.831 57.6912 157.894 57.657 157.959 57.6372C158.022 57.6167 158.086 57.5965 158.152 57.5768L158.78 57.4003C158.921 57.3599 159.027 57.3237 159.1 57.2918C159.171 57.2568 159.221 57.2212 159.25 57.185C159.28 57.1466 159.304 57.1045 159.322 57.0588L159.429 57.1007L159.275 57.4987C159.262 57.5313 159.211 57.5665 159.121 57.6042C159.032 57.6398 158.934 57.673 158.827 57.704L158.146 57.8902C158.076 57.9104 158.009 57.9318 157.945 57.9546C157.879 57.9765 157.826 58.0023 157.787 58.0322L157.728 58.1933L158.449 58.4734C158.564 58.5182 158.649 58.5548 158.703 58.5833C158.716 58.5433 158.729 58.5033 158.742 58.4633C158.755 58.4233 158.768 58.3834 158.781 58.3434L158.925 58.3991L158.64 59.1332ZM159.397 56.8643C159.425 56.78 159.428 56.7163 159.408 56.6731C159.385 56.6292 159.344 56.5947 159.286 56.5697C159.227 56.5417 159.159 56.5129 159.083 56.4833L157.674 55.9358C157.583 55.9003 157.506 55.8667 157.443 55.8348C157.43 55.8748 157.417 55.9148 157.404 55.9548C157.391 55.9948 157.378 56.0348 157.365 56.0747L157.221 56.019C157.264 55.9029 157.309 55.7839 157.356 55.6621C157.401 55.5395 157.448 55.4151 157.497 55.2889C157.62 54.9735 157.766 54.7539 157.937 54.63C158.109 54.5039 158.301 54.4771 158.513 54.5495C158.599 54.5781 158.683 54.6258 158.765 54.6926C158.846 54.7564 158.911 54.8445 158.963 54.9571C159.013 55.0667 159.035 55.203 159.029 55.3659C159.024 55.5289 158.977 55.7224 158.89 55.9464C158.887 55.9551 158.88 55.9715 158.871 55.9954C158.862 56.0193 158.852 56.0417 158.841 56.0626L159.314 56.2464C159.43 56.2912 159.514 56.3278 159.568 56.3563C159.583 56.3046 159.599 56.2533 159.617 56.2024C159.634 56.1516 159.651 56.1007 159.669 56.0498L159.815 56.1069L159.505 56.9062L159.397 56.8643ZM158.707 56.0107C158.728 55.971 158.745 55.9375 158.758 55.9101C158.77 55.8796 158.784 55.8437 158.8 55.8024C158.848 55.6784 158.868 55.556 158.86 55.4352C158.849 55.3136 158.81 55.2045 158.743 55.1082C158.675 55.0118 158.578 54.9391 158.452 54.8901C158.315 54.8368 158.194 54.8235 158.088 54.8501C157.981 54.8737 157.89 54.9295 157.813 55.0173C157.737 55.103 157.673 55.2122 157.622 55.3449C157.592 55.421 157.588 55.4806 157.609 55.5237C157.63 55.5647 157.67 55.5987 157.727 55.6259C157.782 55.6501 157.849 55.6773 157.928 55.7078L158.707 56.0107ZM160.196 55.1267L160.088 55.0848C160.114 55.0196 160.116 54.9628 160.095 54.9145C160.073 54.8662 160.036 54.8193 159.984 54.7739C159.932 54.7263 159.872 54.6717 159.804 54.61L158.234 53.2269L158.265 53.1486L160.404 53.1422C160.456 53.1425 160.523 53.1458 160.603 53.1519C160.683 53.158 160.747 53.173 160.796 53.1968C160.808 53.159 160.82 53.1211 160.832 53.0833C160.844 53.0455 160.857 53.0077 160.869 52.9699L161.012 53.0256L160.722 53.7727L160.614 53.7309C160.644 53.6474 160.647 53.5859 160.622 53.5462C160.598 53.5066 160.56 53.4808 160.51 53.4687C160.459 53.4567 160.412 53.4506 160.367 53.4506L160.016 53.4457L159.706 54.3015L160.01 54.5513C160.057 54.5868 160.092 54.617 160.118 54.6419C160.144 54.6646 160.173 54.6908 160.204 54.7204C160.218 54.676 160.233 54.6328 160.247 54.5906C160.261 54.5462 160.276 54.503 160.29 54.4608L160.433 54.5166L160.196 55.1267ZM159.584 54.1981L159.877 53.4445L159.164 53.434C159.087 53.4318 159.011 53.431 158.936 53.4318C158.859 53.4295 158.782 53.4272 158.706 53.425L158.703 53.4315C158.756 53.4769 158.808 53.5234 158.859 53.571C158.912 53.6164 158.965 53.6633 159.019 53.7117L159.584 54.1981ZM159.176 51.306C159.147 51.3873 159.143 51.4511 159.165 51.4972C159.188 51.5412 159.228 51.5767 159.285 51.6039C159.343 51.6289 159.411 51.6566 159.49 51.687L160.876 52.2257C160.992 52.2704 161.076 52.3071 161.13 52.3356C161.143 52.2956 161.156 52.2556 161.169 52.2156C161.182 52.1756 161.195 52.1356 161.208 52.0956L161.352 52.1514L161.067 52.8854L160.959 52.8436C160.987 52.7593 160.99 52.6955 160.97 52.6524C160.947 52.6084 160.906 52.574 160.848 52.549C160.789 52.521 160.721 52.4922 160.645 52.4626L159.236 51.9151C159.145 51.8796 159.068 51.8459 159.005 51.814C158.992 51.854 158.979 51.894 158.966 51.934C158.953 51.974 158.94 52.014 158.927 52.054L158.783 51.9982L159.068 51.2642L159.176 51.306ZM158.674 51.2051C158.657 51.2486 158.624 51.2794 158.575 51.2977C158.525 51.316 158.473 51.3145 158.419 51.2934C158.364 51.2723 158.325 51.2382 158.301 51.1912C158.275 51.1412 158.27 51.0956 158.286 51.0542C158.305 51.0064 158.34 50.9749 158.391 50.9596C158.439 50.9435 158.491 50.946 158.545 50.9672C158.6 50.9883 158.639 51.0223 158.663 51.0693C158.688 51.1163 158.691 51.1616 158.674 51.2051ZM158.463 51.7499C158.446 51.7934 158.413 51.8243 158.363 51.8425C158.313 51.8608 158.261 51.8594 158.207 51.8382C158.153 51.8171 158.113 51.7831 158.089 51.7361C158.063 51.6861 158.058 51.6404 158.075 51.5991C158.093 51.5512 158.128 51.5197 158.179 51.5044C158.228 51.4884 158.279 51.4909 158.334 51.512C158.388 51.5331 158.427 51.5672 158.452 51.6142C158.476 51.6612 158.48 51.7064 158.463 51.7499ZM161.491 51.7926L161.384 51.7508C161.411 51.6665 161.415 51.6027 161.394 51.5596C161.371 51.5156 161.331 51.4812 161.273 51.4562C161.214 51.4282 161.146 51.3994 161.07 51.3698L159.66 50.8223C159.569 50.7868 159.492 50.7531 159.429 50.7212C159.416 50.7612 159.403 50.8012 159.39 50.8412C159.377 50.8812 159.364 50.9212 159.351 50.9612L159.208 50.9054L159.493 50.1714L159.6 50.2132C159.571 50.2945 159.568 50.3583 159.59 50.4044C159.613 50.4484 159.653 50.4839 159.71 50.5111C159.768 50.5361 159.836 50.5638 159.914 50.5942L160.456 50.8046L160.91 49.6366L160.224 49.3705C160.133 49.335 160.056 49.3013 159.993 49.2694C159.98 49.3094 159.967 49.3494 159.954 49.3894C159.941 49.4294 159.928 49.4694 159.915 49.5094L159.772 49.4536L160.057 48.7196L160.164 48.7614C160.135 48.8427 160.132 48.9065 160.154 48.9526C160.177 48.9966 160.217 49.0321 160.274 49.0593C160.332 49.0843 160.4 49.112 160.478 49.1424L161.865 49.6811C161.98 49.7258 162.065 49.7625 162.119 49.791C162.132 49.751 162.145 49.711 162.158 49.671C162.171 49.631 162.184 49.591 162.197 49.551L162.34 49.6068L162.055 50.3408L161.948 50.299C161.975 50.2147 161.979 50.1509 161.958 50.1078C161.935 50.0638 161.895 50.0294 161.837 50.0044C161.778 49.9764 161.71 49.9476 161.634 49.918L161.04 49.6873L160.599 50.8604L161.301 51.1329C161.416 51.1776 161.501 51.2143 161.555 51.2428C161.568 51.2028 161.581 51.1628 161.594 51.1228C161.607 51.0828 161.62 51.0428 161.633 51.0028L161.776 51.0586L161.491 51.7926ZM161.614 46.867C161.401 46.8093 161.214 46.8194 161.054 46.8973C160.894 46.973 160.778 47.1054 160.704 47.2946C160.644 47.4491 160.633 47.6062 160.671 47.7662C160.707 47.9253 160.788 48.0733 160.915 48.2103C161.043 48.3451 161.214 48.4539 161.427 48.5367C161.631 48.6161 161.827 48.6471 162.014 48.6296C162.201 48.6121 162.364 48.554 162.502 48.4551C162.641 48.3562 162.742 48.2263 162.804 48.0653C162.859 47.924 162.882 47.7725 162.872 47.611C162.86 47.4486 162.81 47.3003 162.722 47.166L162.823 47.1078C162.915 47.2511 162.975 47.3907 163.002 47.5265C163.03 47.6623 163.034 47.7892 163.016 47.9072C163 48.024 162.975 48.1269 162.941 48.2161C162.877 48.3792 162.79 48.5179 162.678 48.6321C162.567 48.7441 162.439 48.8299 162.296 48.8894C162.152 48.9458 161.999 48.9742 161.839 48.9745C161.677 48.9718 161.515 48.9388 161.352 48.8754C161.197 48.8154 161.056 48.7343 160.928 48.632C160.801 48.5275 160.697 48.4057 160.616 48.2666C160.535 48.1274 160.487 47.9736 160.472 47.8052C160.458 47.6346 160.488 47.4547 160.562 47.2655C160.654 47.0263 160.806 46.8324 161.017 46.6838L160.834 46.6317L160.902 46.4555L161.659 46.7495L161.614 46.867ZM161.464 45.4151C161.435 45.4964 161.432 45.5601 161.454 45.6063C161.477 45.6502 161.517 45.6858 161.574 45.713C161.632 45.738 161.7 45.7657 161.778 45.7961L162.225 45.9697L162.318 45.7017C162.404 45.4599 162.501 45.281 162.609 45.1651C162.718 45.0471 162.833 44.9781 162.956 44.9582C163.077 44.9375 163.201 44.9521 163.33 45.002C163.482 45.0611 163.597 45.1447 163.675 45.2526C163.751 45.3598 163.793 45.4811 163.8 45.6167C163.808 45.7522 163.783 45.894 163.725 46.0419L163.355 46.9945L163.248 46.9527C163.277 46.8714 163.281 46.8091 163.26 46.766C163.237 46.722 163.197 46.6865 163.14 46.6593C163.081 46.6313 163.012 46.6021 162.934 46.5717L161.524 46.0242C161.433 45.9887 161.356 45.955 161.293 45.9231C161.28 45.9631 161.267 46.0031 161.254 46.0431C161.241 46.0831 161.228 46.1231 161.215 46.1631L161.072 46.1073L161.357 45.3733L161.464 45.4151ZM163.168 46.336C163.281 46.3799 163.365 46.4161 163.419 46.4446C163.434 46.4107 163.453 46.3702 163.473 46.3232C163.493 46.2732 163.511 46.2275 163.527 46.1862C163.543 46.1427 163.554 46.1144 163.56 46.1014C163.625 45.9339 163.632 45.7817 163.583 45.6448C163.534 45.5058 163.413 45.3987 163.22 45.3235C163.08 45.2694 162.963 45.2537 162.866 45.2763C162.77 45.2989 162.69 45.3467 162.627 45.4197C162.561 45.4919 162.509 45.578 162.47 45.678C162.445 45.7433 162.422 45.8035 162.403 45.8587C162.383 45.9109 162.365 45.964 162.349 46.0179L163.168 46.336ZM164.135 44.9873L164.027 44.9455C164.055 44.8611 164.059 44.7974 164.038 44.7543C164.015 44.7103 163.974 44.6758 163.917 44.6509C163.857 44.6228 163.79 44.5941 163.714 44.5645L162.304 44.017C162.213 43.9815 162.136 43.9478 162.073 43.9159C162.06 43.9559 162.047 43.9959 162.034 44.0359C162.021 44.0759 162.008 44.1159 161.995 44.1559L161.851 44.1001L162.136 43.3661L162.244 43.4079C162.215 43.4892 162.212 43.553 162.234 43.5991C162.257 43.6431 162.297 43.6786 162.354 43.7058C162.412 43.7308 162.48 43.7585 162.558 43.7889L163.093 43.9968L163.188 43.7521L162.704 43.0946C162.671 43.0494 162.637 42.996 162.601 42.9344C162.565 42.8728 162.538 42.8135 162.52 42.7565C162.509 42.79 162.497 42.8241 162.484 42.8589C162.471 42.8915 162.459 42.9246 162.449 42.958L162.315 42.9061L162.588 42.2046L162.695 42.2465C162.666 42.3403 162.65 42.4278 162.646 42.5089C162.642 42.59 162.658 42.6749 162.693 42.7639C162.727 42.8519 162.789 42.9562 162.88 43.0766L163.264 43.594C163.326 43.5453 163.389 43.5111 163.455 43.4914C163.518 43.4708 163.582 43.4507 163.647 43.431L164.275 43.2544C164.416 43.214 164.523 43.1778 164.595 43.1459C164.666 43.111 164.716 43.0754 164.745 43.0391C164.775 43.0007 164.799 42.9586 164.817 42.913L164.925 42.9548L164.77 43.3528C164.757 43.3854 164.706 43.4206 164.616 43.4583C164.527 43.4939 164.429 43.5272 164.322 43.5581L163.642 43.7443C163.571 43.7645 163.504 43.786 163.44 43.8087C163.374 43.8306 163.321 43.8565 163.282 43.8863L163.223 44.0475L163.944 44.3275C164.06 44.3723 164.144 44.409 164.198 44.4375C164.211 44.3975 164.224 44.3575 164.238 44.3175C164.251 44.2775 164.264 44.2375 164.277 44.1975L164.42 44.2533L164.135 44.9873ZM164.923 42.9593L164.815 42.9175C164.841 42.8522 164.843 42.7954 164.821 42.7471C164.8 42.6988 164.763 42.6519 164.711 42.6065C164.659 42.559 164.599 42.5043 164.53 42.4426L162.961 41.0595L162.992 40.9812L165.131 40.9748C165.183 40.9752 165.249 40.9784 165.33 40.9846C165.41 40.9907 165.474 41.0056 165.522 41.0294C165.535 40.9916 165.547 40.9538 165.559 40.916C165.571 40.8781 165.583 40.8403 165.595 40.8025L165.739 40.8583L165.449 41.6054L165.341 41.5636C165.371 41.4801 165.374 41.4185 165.349 41.3789C165.324 41.3393 165.287 41.3134 165.236 41.3014C165.186 41.2893 165.138 41.2833 165.093 41.2833L164.742 41.2783L164.432 42.1342L164.737 42.384C164.783 42.4195 164.819 42.4497 164.845 42.4746C164.871 42.4973 164.899 42.5234 164.93 42.553C164.945 42.5087 164.96 42.4654 164.973 42.4232C164.988 42.3789 165.002 42.3356 165.016 42.2935L165.16 42.3492L164.923 42.9593ZM164.311 42.0308L164.604 41.2771L163.891 41.2667C163.814 41.2644 163.738 41.2637 163.663 41.2644C163.586 41.2621 163.509 41.2599 163.432 41.2576L163.43 41.2641C163.482 41.3095 163.534 41.356 163.586 41.4036C163.638 41.449 163.692 41.4959 163.745 41.5444L164.311 42.0308ZM166.234 39.7378C166.204 39.8161 166.157 39.8781 166.095 39.9237C166.03 39.9686 165.963 39.9779 165.896 39.9517C165.848 39.9331 165.814 39.9038 165.795 39.8637C165.774 39.8206 165.772 39.7747 165.788 39.726C165.805 39.6699 165.836 39.6356 165.881 39.623C165.924 39.6096 165.961 39.6092 165.994 39.6219C166.031 39.6362 166.056 39.6585 166.069 39.6887C166.094 39.6781 166.11 39.663 166.117 39.6434C166.131 39.6064 166.116 39.5517 166.072 39.4794C166.028 39.4049 165.95 39.3194 165.837 39.223C165.725 39.1267 165.575 39.0248 165.389 38.9175C165.201 38.8093 164.971 38.7024 164.699 38.5968L164.213 38.4079L164.186 38.4765L164.107 38.7197L163.963 38.6639L164.59 37.049L164.698 37.0908C164.669 37.1721 164.666 37.2359 164.688 37.282C164.711 37.326 164.751 37.3615 164.808 37.3887C164.866 37.4137 164.934 37.4414 165.012 37.4718L166.399 38.0105C166.514 38.0552 166.598 38.0919 166.652 38.1204C166.665 38.0804 166.679 38.0404 166.692 38.0004C166.705 37.9604 166.718 37.9204 166.731 37.8804L166.874 37.9362L166.588 38.6735L166.48 38.6317C166.508 38.5473 166.511 38.4836 166.491 38.4405C166.468 38.3943 166.428 38.3588 166.371 38.3338C166.311 38.3058 166.244 38.277 166.168 38.2474L164.52 37.6074L164.345 38.0686C164.314 38.1469 164.317 38.2043 164.353 38.2408C164.387 38.2764 164.445 38.3129 164.528 38.3502C164.719 38.4246 164.906 38.5046 165.088 38.5903C165.27 38.676 165.439 38.7655 165.596 38.8589C165.75 38.9514 165.882 39.0465 165.992 39.1442C166.102 39.2419 166.18 39.341 166.226 39.4415C166.27 39.5411 166.272 39.6399 166.234 39.7378ZM166.61 36.1131C166.514 36.0759 166.441 36.0623 166.389 36.0724C166.338 36.0824 166.297 36.114 166.266 36.1672C166.235 36.2204 166.204 36.2946 166.172 36.3898L166.089 36.6317L166.836 36.922C166.95 36.9659 167.033 37.0021 167.087 37.0306L167.319 36.4037C167.354 36.3071 167.371 36.2186 167.37 36.138C167.367 36.0566 167.336 35.9819 167.277 35.914C167.218 35.8461 167.125 35.7873 166.996 35.7374L167.039 35.6265L167.668 35.8932L167.014 37.5767L166.906 37.5348C166.934 37.4505 166.937 37.3868 166.917 37.3436C166.894 37.2997 166.853 37.2652 166.795 37.2402C166.736 37.2122 166.669 37.1834 166.592 37.1538L165.183 36.6063C165.092 36.5708 165.015 36.5372 164.952 36.5053C164.939 36.5453 164.926 36.5853 164.913 36.6253C164.9 36.6653 164.887 36.7053 164.874 36.7453L164.73 36.6895L165.34 35.1202L165.917 35.3257L165.875 35.4334C165.747 35.3835 165.642 35.3655 165.562 35.3793C165.479 35.3923 165.414 35.4282 165.366 35.4872C165.317 35.5432 165.277 35.6129 165.247 35.6964L165.145 35.9795C165.116 36.0608 165.109 36.1244 165.123 36.1701C165.138 36.2159 165.172 36.2541 165.225 36.2848C165.277 36.3125 165.348 36.3436 165.437 36.3783L165.959 36.581L166.2 35.969L165.911 35.8828L165.967 35.7393L166.652 36.0054L166.61 36.1131ZM167.802 35.5472L167.695 35.5054C167.722 35.421 167.726 35.3573 167.705 35.3142C167.682 35.2702 167.642 35.2357 167.584 35.2107C167.525 35.1827 167.457 35.1539 167.381 35.1244L165.971 34.5768C165.88 34.5413 165.803 34.5077 165.74 34.4758C165.727 34.5158 165.714 34.5558 165.701 34.5958C165.688 34.6358 165.675 34.6758 165.662 34.7158L165.519 34.66L166.107 33.1462L166.684 33.3517L166.637 33.4724C166.509 33.4226 166.404 33.4045 166.324 33.4183C166.241 33.4313 166.176 33.4662 166.129 33.523C166.08 33.5789 166.04 33.6486 166.01 33.7321L165.924 33.9728C165.895 34.0542 165.893 34.1172 165.919 34.162C165.941 34.206 165.981 34.2416 166.039 34.2687C166.096 34.2959 166.162 34.3243 166.238 34.3538L167.612 34.8874C167.727 34.9322 167.812 34.9688 167.866 34.9973C167.885 34.9399 167.905 34.8836 167.924 34.8284C167.944 34.771 167.963 34.7147 167.982 34.6595L168.125 34.7152L167.802 35.5472ZM168.497 33.7598L168.389 33.718C168.417 33.6337 168.42 33.5699 168.399 33.5268C168.376 33.4828 168.336 33.4484 168.278 33.4234C168.219 33.3954 168.151 33.3666 168.075 33.337L166.666 32.7895C166.574 32.754 166.497 32.7203 166.435 32.6884C166.422 32.7284 166.409 32.7684 166.396 32.8084C166.383 32.8484 166.369 32.8884 166.356 32.9284L166.213 32.8726L166.498 32.1386L166.606 32.1804C166.577 32.2617 166.573 32.3255 166.595 32.3716C166.618 32.4156 166.658 32.4511 166.715 32.4783C166.773 32.5033 166.841 32.531 166.92 32.5614L167.455 32.7693L167.55 32.5246L167.065 31.8671C167.033 31.8219 166.999 31.7685 166.962 31.7069C166.926 31.6453 166.899 31.586 166.881 31.529C166.871 31.5625 166.859 31.5966 166.845 31.6314C166.833 31.664 166.821 31.6971 166.811 31.7305L166.677 31.6786L166.949 30.9772L167.057 31.019C167.028 31.1129 167.011 31.2003 167.008 31.2814C167.004 31.3625 167.019 31.4475 167.055 31.5364C167.088 31.6244 167.15 31.7287 167.241 31.8491L167.626 32.3665C167.688 32.3178 167.751 32.2836 167.816 32.2639C167.879 32.2433 167.943 32.2232 168.009 32.2035L168.637 32.0269C168.777 31.9865 168.884 31.9504 168.957 31.9184C169.028 31.8835 169.078 31.8479 169.107 31.8116C169.137 31.7732 169.161 31.7312 169.179 31.6855L169.286 31.7273L169.132 32.1253C169.119 32.158 169.068 32.1931 168.978 32.2309C168.889 32.2664 168.791 32.2997 168.684 32.3306L168.003 32.5168C167.933 32.537 167.866 32.5585 167.802 32.5812C167.736 32.6031 167.683 32.629 167.644 32.6588L167.585 32.82L168.306 33.1001C168.421 33.1448 168.506 33.1815 168.56 33.21C168.573 33.17 168.586 33.13 168.599 33.09C168.612 33.05 168.625 33.01 168.638 32.97L168.782 33.0258L168.497 33.7598ZM169.823 30.5007C169.743 30.7073 169.639 30.871 169.512 30.9919C169.385 31.1127 169.245 31.1975 169.094 31.2463C168.941 31.292 168.785 31.3092 168.627 31.2977C168.469 31.2863 168.319 31.2532 168.178 31.1982C168.041 31.145 167.911 31.0685 167.79 30.9688C167.666 30.8682 167.564 30.7483 167.483 30.6091C167.402 30.4678 167.354 30.3125 167.337 30.1433C167.321 29.9718 167.35 29.7904 167.425 29.599C167.502 29.3989 167.605 29.24 167.734 29.1221C167.862 29.0043 168.004 28.9218 168.16 28.8748C168.315 28.8247 168.471 28.8039 168.628 28.8123C168.785 28.8185 168.933 28.8482 169.07 28.9015C169.205 28.9538 169.334 29.0303 169.458 29.1309C169.579 29.2307 169.681 29.3516 169.763 29.4938C169.844 29.633 169.893 29.7872 169.91 29.9564C169.927 30.1257 169.898 30.3071 169.823 30.5007ZM169.692 30.4422C169.744 30.3073 169.761 30.1789 169.744 30.0569C169.724 29.934 169.679 29.8214 169.608 29.7189C169.537 29.6135 169.448 29.5216 169.344 29.4434C169.238 29.3621 169.125 29.2983 169.005 29.2518C168.87 29.1994 168.729 29.1659 168.582 29.1514C168.435 29.1368 168.293 29.1443 168.157 29.1738C168.02 29.2033 167.898 29.2587 167.792 29.3399C167.684 29.4181 167.604 29.5247 167.551 29.6595C167.499 29.7944 167.482 29.9243 167.501 30.0493C167.521 30.1722 167.567 30.2864 167.638 30.3918C167.709 30.4942 167.797 30.5861 167.903 30.6673C168.008 30.7456 168.121 30.8084 168.243 30.8557C168.363 30.9022 168.494 30.9344 168.637 30.9525C168.781 30.9684 168.923 30.9635 169.063 30.9379C169.204 30.9122 169.329 30.8596 169.44 30.7801C169.551 30.7005 169.635 30.5879 169.692 30.4422Z" fill="black"/>
<path d="M147.182 80.1871C146.654 80.5951 146.267 80.7991 146.021 80.7991C145.889 80.7991 145.79 80.7331 145.724 80.6011C145.664 80.4751 145.634 80.3371 145.634 80.1871C145.634 79.8991 145.754 79.4671 145.994 78.8911C146.24 78.3151 146.474 78.0271 146.696 78.0271C146.81 78.0271 146.906 78.2521 146.984 78.7021C147.068 79.1521 147.152 79.4791 147.236 79.6831C147.644 79.2511 148.235 78.5311 149.009 77.5231C149.981 76.2451 150.626 75.5461 150.944 75.4261C151.052 75.3841 151.163 75.3631 151.277 75.3631C151.391 75.3631 151.484 75.3871 151.556 75.4351C151.634 75.4831 151.673 75.5431 151.673 75.6151C151.673 75.7171 151.586 75.7771 151.412 75.7951C151.202 75.9091 150.878 76.1851 150.44 76.6231C150.002 77.0491 149.651 77.4481 149.387 77.8201C148.745 78.7141 148.085 79.4431 147.407 80.0071C147.743 80.5051 148.271 80.7541 148.991 80.7541C149.069 80.7541 149.186 80.7481 149.342 80.7361C151.01 80.5801 152.192 79.8571 152.888 78.5671C153.17 78.0511 153.311 77.5411 153.311 77.0371C153.311 76.5331 153.128 76.0801 152.762 75.6781C152.468 75.3481 152.147 75.1441 151.799 75.0661C151.457 74.9881 151.106 74.9491 150.746 74.9491C149.822 74.9491 148.97 75.1621 148.19 75.5881C147.368 76.0381 146.957 76.5421 146.957 77.1001C146.957 77.2501 146.996 77.3731 147.074 77.4691C147.158 77.5651 147.215 77.6191 147.245 77.6311H147.191C147.035 77.6011 146.897 77.5231 146.777 77.3971C146.645 77.2411 146.579 77.0761 146.579 76.9021C146.579 76.3021 146.954 75.7861 147.704 75.3541C148.46 74.9221 149.345 74.7061 150.359 74.7061C150.827 74.7061 151.307 74.7601 151.799 74.8681C152.291 74.9761 152.738 75.2341 153.14 75.6421C153.602 76.1221 153.833 76.6651 153.833 77.2711C153.833 77.7211 153.701 78.1861 153.437 78.6661C152.981 79.4941 152.3 80.1001 151.394 80.4841C150.668 80.7901 149.885 80.9431 149.045 80.9431C148.205 80.9431 147.584 80.6911 147.182 80.1871ZM145.958 80.1511C145.958 80.3371 145.994 80.4991 146.066 80.6371C146.324 80.5231 146.636 80.2861 147.002 79.9261C146.828 79.6381 146.717 79.4131 146.669 79.2511C146.627 79.0831 146.597 78.8641 146.579 78.5941C146.165 79.1881 145.958 79.7071 145.958 80.1511ZM147.245 77.6311C147.251 77.6311 147.257 77.6281 147.263 77.6221C147.263 77.6341 147.26 77.6401 147.254 77.6401C147.254 77.6401 147.251 77.6371 147.245 77.6311Z" fill="black"/>
<g filter="url(#filter4_d)">
<path d="M180.499 5.41211L180.499 89.4121L181.352 89.7534C185.595 91.4506 190.35 91.3272 194.499 89.4121L194.499 5.41211C189.885 6.40088 185.113 6.40088 180.499 5.41211Z" fill="#F4EEEE"/>
<path d="M180.499 5.41211L180.499 89.4121L181.352 89.7534C185.595 91.4506 190.35 91.3272 194.499 89.4121L194.499 5.41211C189.885 6.40088 185.113 6.40088 180.499 5.41211Z" stroke="#951414"/>
</g>
<path d="M182.958 47.4121V46.7821C183.238 46.7821 183.453 46.7074 183.602 46.5581C183.751 46.4088 183.877 46.2081 183.98 45.9561C184.083 45.6948 184.195 45.4054 184.316 45.0881L187.144 37.3461H187.704L190.77 45.2001C190.845 45.3774 190.924 45.6201 191.008 45.9281C191.101 46.2268 191.148 46.4834 191.148 46.6981C191.307 46.6888 191.461 46.6794 191.61 46.6701C191.769 46.6514 191.918 46.6421 192.058 46.6421V47.4121H188.656V46.7961C188.983 46.7868 189.197 46.7168 189.3 46.5861C189.412 46.4461 189.454 46.2781 189.426 46.0821C189.407 45.8861 189.361 45.6901 189.286 45.4941L188.866 44.3601L185.436 44.4441L185.03 45.6621C184.899 46.0448 184.773 46.3854 184.652 46.6841C184.82 46.6748 184.997 46.6654 185.184 46.6561C185.38 46.6374 185.553 46.6281 185.702 46.6281V47.4121H182.958ZM185.688 43.6881H188.628L187.746 41.3221C187.634 41.0234 187.527 40.7201 187.424 40.4121C187.321 40.1041 187.228 39.8101 187.144 39.5301H187.13C187.046 39.7634 186.957 40.0201 186.864 40.3001C186.78 40.5801 186.677 40.8834 186.556 41.2101L185.688 43.6881Z" fill="#680707"/>
<path d="M189.972 59.1461C189.972 58.6141 189.883 58.2128 189.706 57.9421C189.538 57.6621 189.314 57.4754 189.034 57.3821C188.763 57.2794 188.469 57.2328 188.152 57.2421L187.172 57.2701C186.724 57.2794 186.449 57.4148 186.346 57.6761C186.253 57.9374 186.206 58.3201 186.206 58.8241V60.8121L187.242 60.7841C188.334 60.7468 189.179 60.8494 189.776 61.0921C190.383 61.3254 190.803 61.6614 191.036 62.1001C191.279 62.5294 191.4 63.0194 191.4 63.5701C191.4 64.1768 191.251 64.6948 190.952 65.1241C190.663 65.5441 190.266 65.8661 189.762 66.0901C189.267 66.3048 188.698 66.4121 188.054 66.4121H183.742V65.7961C184.05 65.7868 184.269 65.7261 184.4 65.6141C184.54 65.4928 184.629 65.3154 184.666 65.0821C184.703 64.8488 184.722 64.5548 184.722 64.2001V58.4181C184.722 57.9888 184.736 57.6248 184.764 57.3261C184.605 57.3354 184.433 57.3448 184.246 57.3541C184.059 57.3634 183.891 57.3728 183.742 57.3821V56.6121H190.546L190.616 59.1461H189.972ZM186.206 64.5641C186.206 64.8161 186.201 65.0401 186.192 65.2361C186.192 65.4321 186.183 65.5908 186.164 65.7121C186.388 65.7214 186.649 65.7261 186.948 65.7261C187.256 65.7261 187.475 65.7261 187.606 65.7261C188.278 65.7168 188.801 65.5301 189.174 65.1661C189.547 64.8021 189.734 64.2841 189.734 63.6121C189.734 63.0428 189.631 62.6041 189.426 62.2961C189.221 61.9788 188.95 61.7594 188.614 61.6381C188.287 61.5168 187.933 61.4561 187.55 61.4561C187.289 61.4561 187.051 61.4608 186.836 61.4701C186.631 61.4701 186.421 61.4794 186.206 61.4981V64.5641Z" fill="#680707"/>
<path d="M183.742 84.4121V83.7961C184.05 83.7868 184.269 83.7261 184.4 83.6141C184.54 83.4928 184.629 83.3154 184.666 83.0821C184.703 82.8488 184.722 82.5548 184.722 82.2001V76.4881C184.722 75.9841 184.736 75.5968 184.764 75.3261C184.605 75.3354 184.433 75.3448 184.246 75.3541C184.059 75.3634 183.891 75.3728 183.742 75.3821V74.6121C184.302 74.6028 184.862 74.5981 185.422 74.5981C185.982 74.5888 186.556 74.5841 187.144 74.5841C188.245 74.5841 189.109 74.7848 189.734 75.1861C190.359 75.5781 190.658 76.1941 190.63 77.0341C190.621 77.4728 190.434 77.8974 190.07 78.3081C189.706 78.7094 189.155 78.9848 188.418 79.1341V79.1621C189.417 79.2088 190.163 79.4701 190.658 79.9461C191.153 80.4128 191.4 80.9821 191.4 81.6541C191.4 82.2421 191.251 82.7414 190.952 83.1521C190.663 83.5628 190.266 83.8754 189.762 84.0901C189.267 84.3048 188.698 84.4121 188.054 84.4121H183.742ZM186.206 79.0081L187.13 78.9801C187.615 78.9708 187.998 78.8681 188.278 78.6721C188.567 78.4761 188.773 78.2241 188.894 77.9161C189.015 77.6081 189.071 77.2861 189.062 76.9501C189.062 76.4834 188.964 76.1288 188.768 75.8861C188.572 75.6434 188.329 75.4754 188.04 75.3821C187.751 75.2888 187.466 75.2421 187.186 75.2421C186.803 75.2514 186.542 75.3401 186.402 75.5081C186.271 75.6761 186.206 76.0214 186.206 76.5441V79.0081ZM186.164 83.7121C186.388 83.7214 186.649 83.7261 186.948 83.7261C187.256 83.7261 187.475 83.7261 187.606 83.7261C188.278 83.7168 188.805 83.5348 189.188 83.1801C189.571 82.8254 189.762 82.3308 189.762 81.6961C189.762 81.1734 189.655 80.7674 189.44 80.4781C189.235 80.1794 188.964 79.9694 188.628 79.8481C188.292 79.7268 187.933 79.6661 187.55 79.6661C187.046 79.6661 186.598 79.6754 186.206 79.6941V82.5641C186.206 82.8161 186.201 83.0401 186.192 83.2361C186.192 83.4321 186.183 83.5908 186.164 83.7121Z" fill="#680707"/>
<path d="M180.499 12.4121L183.256 12.806C186.071 13.208 188.928 13.208 191.742 12.806L194.499 12.4121V23.4121L191.742 23.806C188.928 24.208 186.071 24.208 183.256 23.806L180.499 23.4121V12.4121Z" fill="#951414"/>
<defs>
<filter id="filter0_i" x="89.0391" y="1" width="110.049" height="97" filterUnits="userSpaceOnUse" color-interpolation-filters="sRGB">
<feFlood flood-opacity="0" result="BackgroundImageFix"/>
<feBlend mode="normal" in="SourceGraphic" in2="BackgroundImageFix" result="shape"/>
<feColorMatrix in="SourceAlpha" type="matrix" values="0 0 0 0 0 0 0 0 0 0 0 0 0 0 0 0 0 0 127 0" result="hardAlpha"/>
<feOffset dy="4"/>
<feGaussianBlur stdDeviation="2"/>
<feComposite in2="hardAlpha" operator="arithmetic" k2="-1" k3="1"/>
<feColorMatrix type="matrix" values="0 0 0 0 0 0 0 0 0 0 0 0 0 0 0 0 0 0 0.25 0"/>
<feBlend mode="normal" in2="shape" result="effect1_innerShadow"/>
</filter>
<filter id="filter1_i" x="1" y="1" width="73.948" height="97" filterUnits="userSpaceOnUse" color-interpolation-filters="sRGB">
<feFlood flood-opacity="0" result="BackgroundImageFix"/>
<feBlend mode="normal" in="SourceGraphic" in2="BackgroundImageFix" result="shape"/>
<feColorMatrix in="SourceAlpha" type="matrix" values="0 0 0 0 0 0 0 0 0 0 0 0 0 0 0 0 0 0 127 0" result="hardAlpha"/>
<feOffset dy="4"/>
<feGaussianBlur stdDeviation="2"/>
<feComposite in2="hardAlpha" operator="arithmetic" k2="-1" k3="1"/>
<feColorMatrix type="matrix" values="0 0 0 0 0 0 0 0 0 0 0 0 0 0 0 0 0 0 0.25 0"/>
<feBlend mode="normal" in2="shape" result="effect1_innerShadow"/>
</filter>
<filter id="filter2_i" x="208.092" y="1" width="200.908" height="97" filterUnits="userSpaceOnUse" color-interpolation-filters="sRGB">
<feFlood flood-opacity="0" result="BackgroundImageFix"/>
<feBlend mode="normal" in="SourceGraphic" in2="BackgroundImageFix" result="shape"/>
<feColorMatrix in="SourceAlpha" type="matrix" values="0 0 0 0 0 0 0 0 0 0 0 0 0 0 0 0 0 0 127 0" result="hardAlpha"/>
<feOffset dy="4"/>
<feGaussianBlur stdDeviation="2"/>
<feComposite in2="hardAlpha" operator="arithmetic" k2="-1" k3="1"/>
<feColorMatrix type="matrix" values="0 0 0 0 0 0 0 0 0 0 0 0 0 0 0 0 0 0 0.25 0"/>
<feBlend mode="normal" in2="shape" result="effect1_innerShadow"/>
</filter>
<filter id="filter3_d" x="135.972" y="11.8488" width="47.6751" height="89.5031" filterUnits="userSpaceOnUse" color-interpolation-filters="sRGB">
<feFlood flood-opacity="0" result="BackgroundImageFix"/>
<feColorMatrix in="SourceAlpha" type="matrix" values="0 0 0 0 0 0 0 0 0 0 0 0 0 0 0 0 0 0 127 0"/>
<feOffset dy="4"/>
<feGaussianBlur stdDeviation="2"/>
<feColorMatrix type="matrix" values="0 0 0 0 0 0 0 0 0 0 0 0 0 0 0 0 0 0 0.25 0"/>
<feBlend mode="normal" in2="BackgroundImageFix" result="effect1_dropShadow"/>
<feBlend mode="normal" in="SourceGraphic" in2="effect1_dropShadow" result="shape"/>
</filter>
<filter id="filter4_d" x="175.999" y="4.79361" width="23" height="94.6493" filterUnits="userSpaceOnUse" color-interpolation-filters="sRGB">
<feFlood flood-opacity="0" result="BackgroundImageFix"/>
<feColorMatrix in="SourceAlpha" type="matrix" values="0 0 0 0 0 0 0 0 0 0 0 0 0 0 0 0 0 0 127 0"/>
<feOffset dy="4"/>
<feGaussianBlur stdDeviation="2"/>
<feColorMatrix type="matrix" values="0 0 0 0 0 0 0 0 0 0 0 0 0 0 0 0 0 0 0.25 0"/>
<feBlend mode="normal" in2="BackgroundImageFix" result="effect1_dropShadow"/>
<feBlend mode="normal" in="SourceGraphic" in2="effect1_dropShadow" result="shape"/>
</filter>
</defs>
</svg>
