<?xml version="1.0" encoding="UTF-8"?>
<svg fill="none" viewBox="0 0 410 141" xmlns="http://www.w3.org/2000/svg">
    <path d="m7 135.36v-19.01h6.3988c2.1859 0 3.8546 0.445 5.0063 1.336 1.1517 0.89 1.7275 2.184 1.7275 3.882 0 0.879-0.2291 1.669-0.6875 2.372-0.4583 0.703-1.1281 1.241-2.0095 1.616 0.9754 0.258 1.7569 0.779 2.3445 1.564 0.5993 0.785 0.899 1.733 0.899 2.846 0 1.757-0.5524 3.098-1.657 4.023-1.0929 0.914-2.6442 1.371-4.6537 1.371h-7.3684zm3.1025-8.346v5.728h4.3011c2.1036 0 3.1554-0.961 3.1554-2.881 0-1.898-1.0636-2.847-3.1906-2.847h-4.2659zm0-2.6h3.2611c2.4326 0 3.6489-0.89 3.6489-2.67 0-1.792-1.1458-2.712-3.4374-2.758h-3.4726v5.428z"
          fill="#817992"/>
    <path d="m55.8 116.35h3.1025v19.01h-3.1025v-13.862l-6.91 13.862h-3.1201v-19.01h3.1201v13.879l6.91-13.879z"
          fill="#817992"/>
    <path d="m84.433 132.71 0.9343-1.336c1.0106-1.546 1.5923-3.824 1.7451-6.834l0.2644-8.187h10.647v16.357h2.2207v8.239h-3.1197v-5.586h-10.841v5.586h-3.1377l0.0176-8.239h1.2692zm3.4727 0h7.0158v-13.352h-4.5127l-0.1587 4.638c-0.1645 3.701-0.946 6.605-2.3444 8.714z"
          fill="#817992"/>
    <path d="m134.22 135.36c-0.188-0.41-0.323-1.101-0.405-2.074-1.105 1.617-2.515 2.425-4.231 2.425-1.727 0-3.079-0.48-4.054-1.441-0.964-0.972-1.446-2.336-1.446-4.093 0-1.933 0.658-3.467 1.975-4.603 1.316-1.136 3.12-1.716 5.411-1.739h2.292v-2.021c0-1.136-0.253-1.944-0.758-2.424s-1.275-0.721-2.309-0.721c-0.94 0-1.704 0.282-2.292 0.844-0.587 0.55-0.881 1.253-0.881 2.108h-3.12c0-0.972 0.288-1.897 0.863-2.776 0.576-0.89 1.352-1.587 2.327-2.091 0.976-0.503 2.063-0.755 3.261-0.755 1.951 0 3.432 0.486 4.443 1.458 1.022 0.961 1.545 2.366 1.568 4.217v9.592c0.012 1.464 0.212 2.735 0.6 3.812v0.282h-3.244zm-4.16-2.478c0.764 0 1.493-0.21 2.186-0.632s1.199-0.949 1.516-1.581v-4.533h-1.763c-1.481 0.023-2.65 0.357-3.508 1.001-0.858 0.633-1.287 1.523-1.287 2.671 0 1.077 0.218 1.862 0.653 2.354 0.435 0.48 1.169 0.72 2.203 0.72z"
          fill="#817992"/>
    <path d="m162.57 135.36v-19.01h6.399c2.186 0 3.854 0.445 5.006 1.336 1.152 0.89 1.728 2.184 1.728 3.882 0 0.879-0.23 1.669-0.688 2.372s-1.128 1.241-2.009 1.616c0.975 0.258 1.756 0.779 2.344 1.564 0.599 0.785 0.899 1.733 0.899 2.846 0 1.757-0.552 3.098-1.657 4.023-1.093 0.914-2.644 1.371-4.654 1.371h-7.368zm3.102-8.346v5.728h4.302c2.103 0 3.155-0.961 3.155-2.881 0-1.898-1.064-2.847-3.191-2.847h-4.266zm0-2.6h3.262c2.432 0 3.648-0.89 3.648-2.67 0-1.792-1.145-2.712-3.437-2.758h-3.473v5.428z"
          fill="#817992"/>
    <path d="m214.46 135.36h-3.103v-8.117h-6.875v8.117h-3.137v-19.01h3.137v8.24h6.875v-8.24h3.103v19.01z"
          fill="#817992"/>
    <path d="m250.32 116.35h3.102v19.01h-3.102v-13.862l-6.911 13.862h-3.12v-19.01h3.12v13.879l6.911-13.879z"
          fill="#817992"/>
    <path d="m279.27 116.35h3.137v16.357h6.893v-16.357h3.102v16.357h2.01l-0.318 8.292h-2.767v-5.639h-12.057v-19.01z"
          fill="#817992"/>
    <path d="m330.27 118.99h-5.2v16.374h-3.103v-16.374h-5.13v-2.636h13.433v2.636z" fill="#817992"/>
    <path d="m354.41 135.36v-19.01h6.399c2.186 0 3.855 0.445 5.006 1.336 1.152 0.89 1.728 2.184 1.728 3.882 0 0.879-0.229 1.669-0.688 2.372-0.458 0.703-1.128 1.241-2.009 1.616 0.975 0.258 1.757 0.779 2.344 1.564 0.6 0.785 0.899 1.733 0.899 2.846 0 1.757-0.552 3.098-1.657 4.023-1.093 0.914-2.644 1.371-4.653 1.371h-7.369zm3.103-8.346v5.728h4.301c2.103 0 3.155-0.961 3.155-2.881 0-1.898-1.063-2.847-3.19-2.847h-4.266zm0-2.6h3.261c2.433 0 3.649-0.89 3.649-2.67 0-1.792-1.146-2.712-3.438-2.758h-3.472v5.428z"
          fill="#817992"/>
    <path d="m392.25 124.98c0-2.765 0.67-4.949 2.009-6.554 1.352-1.616 3.132-2.424 5.341-2.424 2.21 0 3.984 0.785 5.324 2.354 1.351 1.57 2.045 3.707 2.08 6.413v2.003c0 2.752-0.67 4.93-2.01 6.535-1.339 1.605-3.126 2.407-5.358 2.407-2.21 0-3.984-0.779-5.324-2.337-1.328-1.557-2.015-3.666-2.062-6.324v-2.073zm3.12 1.792c0 1.955 0.382 3.496 1.146 4.62 0.775 1.113 1.815 1.669 3.12 1.669 2.75 0 4.166-1.979 4.248-5.938v-2.143c0-1.945-0.388-3.479-1.164-4.603-0.775-1.137-1.815-1.705-3.12-1.705-1.281 0-2.309 0.568-3.084 1.705-0.764 1.124-1.146 2.652-1.146 4.585v1.81z"
          fill="#817992"/>
    <g filter="url(#e)">
        <path d="M143.849 64.6904L168.086 1H199.088V94H174.338V36.9279L152.157 94H135.542L113.789 37.8734V94H89.0391V1H119.784L143.849 64.6904Z"
              fill="#5D3E9F"/>
    </g>
    <g filter="url(#d)">
        <path d="m74.824 62.606c-0.7049 9.7393-4.3121 17.406-10.822 23.001-6.4681 5.5949-15.009 8.3924-25.624 8.3924-11.609 0-20.752-3.8957-27.427-11.687-6.6339-7.8329-9.9509-18.567-9.9509-32.202v-5.5328c0-8.7032 1.5341-16.37 4.6023-23.001s7.4425-11.708 13.123-15.231c5.7218-3.5642 12.356-5.3463 19.902-5.3463 10.448 0 18.865 2.7975 25.25 8.3924 6.3852 5.5949 10.075 13.449 11.07 23.561h-18.658c-0.456-5.8436-2.0938-10.071-4.9132-12.682-2.778-2.6524-7.0279-3.9786-12.75-3.9786-6.2193 0-10.884 2.2379-13.994 6.7139-3.0682 4.4345-4.6438 11.335-4.7267 20.701v6.8382c0 9.7808 1.4719 16.93 4.4157 21.447 2.9853 4.5174 7.6706 6.7761 14.056 6.7761 5.7633 0 10.055-1.3055 12.874-3.9165 2.8609-2.6524 4.4986-6.7346 4.9133-12.247h18.658z"
              fill="#5D3E9F"/>
    </g>
    <g fill="#5D3E9F" filter="url(#c)">
        <path d="m268.48 74.838h-33.612l-6.39 19.162h-20.385l34.635-93h17.764l34.827 93h-20.385l-6.454-19.162zm-28.436-15.521h23.26l-11.694-34.811-11.566 34.811z"/>
        <path d="M334.362 55.9952H323.307V94H304.137V1H323.307V38.2383H332.062L354.811 1H378.199L349.507 45.0089L381.202 94H358.325L334.362 55.9952Z"/>
        <path d="M409 94H389.829V1H409V94Z"/>
    </g>
    <path d="m168.09 0.5h-0.345l-0.122 0.32217-23.768 62.458-23.599-62.457-0.122-0.32327h-31.591v94h25.75v-53.953l20.787 53.634 0.124 0.3193h17.299l0.124-0.3189 21.215-54.586v54.905h25.75v-94h-31.502z"
          stroke="#9D8AC5"/>
    <path d="m75.322 62.642 0.0388-0.5361h-19.659l-0.0348 0.4625c-0.4091 5.4385-2.0186 9.3807-4.7544 11.917-2.6901 2.4911-6.8356 3.7833-12.534 3.7833-6.2513 0-10.762-2.2006-13.637-6.5501-2.8627-4.3935-4.334-11.422-4.334-21.173v-6.8359c0.0828-9.3302 1.6552-16.108 4.6377-20.419 3.0019-4.3205 7.5005-6.4986 13.582-6.4986 5.6552 0 9.7562 1.3118 12.404 3.8402l-1e-4 1e-4 0.0056 0.0051c2.689 2.4902 4.3033 6.5718 4.7546 12.354l0.036 0.4611h19.672l-0.054-0.549c-1.005-10.212-4.7396-18.193-11.238-23.888-6.4962-5.6921-15.04-8.5163-25.58-8.5163-7.6279 0-14.356 1.8024-20.166 5.4216-5.7709 3.579-10.207 8.7344-13.313 15.445-3.1039 6.7082-4.6485 14.449-4.6485 23.211v5.5328c0 13.714 3.3369 24.576 10.069 32.525l0.0018 0.0021c6.7836 7.9177 16.073 11.862 27.807 11.862 10.704 0 19.371-2.8231 25.951-8.5142 6.624-5.6938 10.28-13.492 10.993-23.343z"
          stroke="#9D8AC5"/>
    <path d="m228.48 94.5h0.36l0.114-0.3418 6.276-18.82h32.893l6.339 18.822 0.115 0.3404h21.465l-0.253-0.6753-34.826-93-0.122-0.32465h-18.459l-0.121 0.3255-34.635 93-0.251 0.6745h21.105zm153.14-0.7716-31.519-48.718 29.019-44.51h-24.592l-0.146 0.23934-22.603 36.999h-7.974v-37.238h-20.17v94h20.17v-38.005h10.279l23.817 37.772 0.147 0.2333h24.071l-0.499-0.7716zm27.378 0.7716h0.5v-94h-20.171v94h19.671zm-168.26-35.683 10.876-32.733 10.996 32.733h-21.872z"
          stroke="#9D8AC5"/>
    <g filter="url(#b)">
        <path d="m170.45 12.603-29.64 76.307 0.125 0.0842c2.387 1.6077 5.094 2.6812 7.934 3.1471l0.45 0.0739 29.64-76.307-0.807-0.1622c-2.743-0.5512-5.356-1.6177-7.702-3.143z"
              fill="#F4F4F4"/>
        <path d="m170.45 12.603-29.64 76.307 0.125 0.0842c2.387 1.6077 5.094 2.6812 7.934 3.1471l0.45 0.0739 29.64-76.307-0.807-0.1622c-2.743-0.5512-5.356-1.6177-7.702-3.143z"
              stroke="#E3A65E"/>
    </g>
    <path d="m142.64 83.991 8.692 3.2702-1.794 4.7672-1.854-0.4053c-2.039-0.446-3.996-1.2085-5.8-2.2599l-1.037-0.605 1.793-4.7672z"
          fill="#E3A65E"/>
    <rect transform="rotate(20.619 150.64 62.992)" x="150.64" y="62.992" width="9.2848" height="5.0935" fill="#E3A65E"/>
    <rect transform="rotate(20.619 167.29 19.412)" x="167.29" y="19.412" width="9.8028" height="5.0935" fill="#E3A65E"/>
    <path d="m158.09 60.712c-0.026 0.0674-0.065 0.1235-0.118 0.1682-0.049 0.0434-0.111 0.0507-0.185 0.022-0.052-0.0203-0.088-0.052-0.109-0.0951-0.023-0.044-0.026-0.0914-9e-3 -0.1423 0.017-0.0508 0.046-0.0823 0.086-0.0944 0.04-0.0143 0.078-0.0147 0.113-0.0012 0.019 0.0076 0.035 0.0162 0.046 0.0256 9e-3 0.0086 0.017 0.0204 0.024 0.0355 6e-3 -0.01 0.013-0.0186 0.021-0.0256 6e-3 -0.0078 0.01-0.0161 0.013-0.0248 0.019-0.0479-0.01-0.118-0.087-0.2104-0.015-0.0184-0.042-0.0463-0.08-0.0837-0.039-0.0403-0.086-0.0873-0.14-0.1409l-1.526 0.1471c-0.104 0.0098-0.188 0.0134-0.252 0.011-0.065-0.0054-0.12-0.0118-0.165-0.0191l-0.072 0.2048-0.144-0.0558 0.306-0.7863 0.107 0.0419c-0.035 0.0913-0.045 0.1614-0.029 0.2102 0.017 0.0466 0.054 0.0772 0.111 0.0918 0.056 0.0116 0.125 0.0135 0.208 0.0058l0.806-0.0737c0.065-5e-3 0.128-0.0104 0.19-0.0162 0.063-8e-3 0.127-0.0145 0.192-0.0195-0.103-0.0973-0.207-0.1955-0.314-0.2945-0.109-0.0999-0.209-0.1901-0.3-0.2707-0.091-0.0827-0.162-0.1468-0.215-0.1922-0.056-0.0471-0.115-0.0972-0.174-0.1503-0.059-0.0553-0.098-0.0994-0.118-0.1321l-0.09 0.2615-0.144-0.0557 0.26-0.6688 0.108 0.0418c-0.027 0.0822-0.033 0.1524-0.018 0.2108 0.013 0.0575 0.043 0.1133 0.093 0.1674 0.047 0.0511 0.109 0.1124 0.183 0.184l1.071 1.0241c0.149 0.1432 0.256 0.2674 0.321 0.3725 0.065 0.1029 0.075 0.212 0.03 0.3273zm0.55-1.5789-0.108-0.0418c0.028-0.0844 0.031-0.1481 0.01-0.1912-0.023-0.044-0.063-0.0785-0.121-0.1035-0.059-0.028-0.127-0.0568-0.203-0.0863l-1.409-0.5476c-0.092-0.0354-0.169-0.0691-0.231-0.101l-0.039 0.12c-0.013 0.04-0.026 0.08-0.04 0.12l-0.143-0.0558 0.285-0.7341 0.108 0.0419c-0.029 0.0813-0.033 0.145-0.011 0.1912 0.023 0.0439 0.063 0.0795 0.12 0.1067 0.058 0.0249 0.126 0.0527 0.205 0.0831l0.535 0.2078 0.095-0.2447-0.485-0.6574c-0.032-0.0452-0.066-0.0986-0.103-0.1602-0.036-0.0616-0.063-0.1209-0.081-0.1779-0.01 0.0334-0.022 0.0676-0.036 0.1024-0.012 0.0326-0.024 0.0656-0.034 0.0991l-0.134-0.052 0.272-0.7014 0.108 0.0418c-0.029 0.0939-0.045 0.1814-0.049 0.2625-4e-3 0.081 0.011 0.166 0.047 0.2549 0.033 0.0881 0.095 0.1923 0.186 0.3127l0.385 0.5175c0.062-0.0487 0.125-0.0829 0.19-0.1027 0.063-0.0205 0.127-0.0407 0.193-0.0604l0.628-0.1765c0.141-0.0404 0.247-0.0766 0.32-0.1085 0.071-0.035 0.121-0.0706 0.15-0.1068 0.03-0.0384 0.054-0.0805 0.072-0.1262l0.107 0.0419-0.154 0.398c-0.013 0.0326-0.064 0.0678-0.154 0.1055-0.089 0.0356-0.187 0.0688-0.294 0.0998l-0.681 0.1862c-0.07 0.0202-0.137 0.0416-0.201 0.0644-0.066 0.0219-0.119 0.0477-0.158 0.0776l-0.059 0.1611 0.721 0.2801c0.115 0.0448 0.2 0.0814 0.254 0.1099l0.039-0.12c0.013-0.04 0.026-0.0799 0.039-0.1199l0.144 0.0557-0.285 0.7341zm0.757-2.2689c0.028-0.0843 0.031-0.148 0.011-0.1912-0.023-0.0439-0.064-0.0784-0.122-0.1034-0.059-0.028-0.127-0.0568-0.203-0.0864l-1.409-0.5475c-0.091-0.0355-0.168-0.0691-0.231-0.101l-0.039 0.12c-0.013 0.04-0.026 0.08-0.039 0.1199l-0.144-0.0557c0.043-0.1161 0.088-0.2351 0.135-0.3569 0.045-0.1226 0.092-0.247 0.141-0.3732 0.123-0.3154 0.269-0.535 0.44-0.6589 0.172-0.1261 0.364-0.1529 0.576-0.0805 0.086 0.0286 0.17 0.0763 0.252 0.1431 0.081 0.0638 0.146 0.1519 0.198 0.2645 0.05 0.1096 0.072 0.2459 0.066 0.4088-5e-3 0.163-0.052 0.3565-0.139 0.5805-3e-3 0.0087-0.01 0.0251-0.019 0.049s-0.019 0.0463-0.03 0.0672l0.473 0.1838c0.116 0.0448 0.2 0.0814 0.254 0.1099 0.015-0.0517 0.031-0.103 0.049-0.1539 0.017-0.0508 0.034-0.1017 0.052-0.1526l0.146 0.0571-0.31 0.7993-0.108-0.0419zm-0.69-0.8536c0.021-0.0397 0.038-0.0732 0.051-0.1006 0.012-0.0305 0.026-0.0664 0.042-0.1077 0.048-0.124 0.068-0.2464 0.06-0.3672-0.011-0.1216-0.05-0.2307-0.117-0.327-0.068-0.0964-0.165-0.1691-0.291-0.2181-0.137-0.0533-0.258-0.0666-0.364-0.04-0.107 0.0236-0.198 0.0794-0.275 0.1672-0.076 0.0857-0.14 0.1949-0.191 0.3276-0.03 0.0761-0.034 0.1357-0.013 0.1788 0.021 0.041 0.061 0.075 0.118 0.1022 0.055 0.0242 0.122 0.0514 0.201 0.0819l0.779 0.3029zm1.489-0.884-0.108-0.0419c0.026-0.0652 0.028-0.122 7e-3 -0.1703-0.022-0.0483-0.059-0.0952-0.111-0.1406-0.052-0.0476-0.112-0.1022-0.18-0.1639l-1.57-1.3831 0.031-0.0783 2.139-0.0064c0.052 3e-4 0.119 0.0036 0.199 0.0097s0.144 0.0211 0.193 0.0449c0.012-0.0378 0.024-0.0757 0.036-0.1135s0.025-0.0756 0.037-0.1134l0.143 0.0557-0.29 0.7471-0.108-0.0418c0.03-0.0835 0.033-0.145 8e-3 -0.1847-0.024-0.0396-0.062-0.0654-0.112-0.0775-0.051-0.012-0.098-0.0181-0.143-0.0181l-0.351-0.0049-0.31 0.8558 0.304 0.2498c0.047 0.0355 0.082 0.0657 0.108 0.0906 0.026 0.0227 0.055 0.0489 0.086 0.0785 0.014-0.0444 0.029-0.0876 0.043-0.1298 0.014-0.0444 0.029-0.0876 0.043-0.1298l0.143 0.0558-0.237 0.6101zm-0.612-0.9286 0.293-0.7536-0.713-0.0105c-0.077-0.0022-0.153-3e-3 -0.228-0.0022-0.077-0.0023-0.154-0.0046-0.23-0.0068l-3e-3 0.0065c0.053 0.0454 0.105 0.0919 0.156 0.1395 0.053 0.0454 0.106 0.0923 0.16 0.1407l0.565 0.4864zm-0.408-2.8921c-0.029 0.0813-0.033 0.1451-0.011 0.1912 0.023 0.044 0.063 0.0795 0.12 0.1067 0.058 0.025 0.126 0.0527 0.205 0.0831l1.386 0.5387c0.116 0.0447 0.2 0.0814 0.254 0.1099l0.078-0.24 0.144 0.0558-0.285 0.734-0.108-0.0418c0.028-0.0843 0.031-0.1481 0.011-0.1912-0.023-0.044-0.064-0.0784-0.122-0.1034-0.059-0.028-0.127-0.0568-0.203-0.0864l-1.409-0.5475c-0.091-0.0355-0.168-0.0692-0.231-0.1011l-0.078 0.24-0.144-0.0558 0.285-0.734 0.108 0.0418zm-0.502-0.1009c-0.017 0.0435-0.05 0.0743-0.099 0.0926-0.05 0.0183-0.102 0.0168-0.156-0.0043-0.055-0.0211-0.094-0.0552-0.118-0.1022-0.026-0.05-0.031-0.0956-0.015-0.137 0.019-0.0478 0.054-0.0793 0.105-0.0946 0.048-0.0161 0.1-0.0136 0.154 0.0076 0.055 0.0211 0.094 0.0551 0.118 0.1021 0.025 0.047 0.028 0.0923 0.011 0.1358zm-0.211 0.5448c-0.017 0.0435-0.05 0.0744-0.1 0.0926-0.05 0.0183-0.102 0.0169-0.156-0.0043-0.054-0.0211-0.094-0.0551-0.118-0.1021-0.026-0.05-0.031-0.0957-0.014-0.137 0.018-0.0479 0.053-0.0794 0.104-0.0947 0.049-0.016 0.1-0.0135 0.155 0.0076 0.054 0.0211 0.093 0.0552 0.118 0.1022 0.024 0.047 0.028 0.0922 0.011 0.1357zm3.028 0.0427-0.107-0.0418c0.027-0.0843 0.031-0.1481 0.01-0.1912-0.023-0.044-0.063-0.0784-0.121-0.1034-0.059-0.028-0.127-0.0568-0.203-0.0864l-1.41-0.5475c-0.091-0.0355-0.168-0.0692-0.231-0.1011l-0.078 0.24-0.143-0.0558 0.285-0.734 0.107 0.0418c-0.029 0.0813-0.032 0.1451-0.01 0.1912 0.023 0.044 0.063 0.0795 0.12 0.1067 0.058 0.025 0.126 0.0527 0.204 0.0831l0.542 0.2104 0.454-1.168-0.686-0.2661c-0.091-0.0355-0.168-0.0692-0.231-0.1011l-0.078 0.24-0.143-0.0558 0.285-0.734 0.107 0.0418c-0.029 0.0813-0.032 0.1451-0.01 0.1912 0.023 0.044 0.063 0.0795 0.12 0.1067 0.058 0.025 0.126 0.0527 0.204 0.0831l1.387 0.5387c0.115 0.0447 0.2 0.0814 0.254 0.1099l0.078-0.24 0.143 0.0558-0.285 0.734-0.107-0.0418c0.027-0.0843 0.031-0.1481 0.01-0.1912-0.023-0.044-0.063-0.0784-0.121-0.1034-0.059-0.028-0.127-0.0568-0.203-0.0864l-0.594-0.2307-0.441 1.1731 0.702 0.2725c0.115 0.0447 0.2 0.0814 0.254 0.1099l0.078-0.24 0.143 0.0558-0.285 0.734zm0.123-4.9256c-0.213-0.0577-0.4-0.0476-0.56 0.0303-0.16 0.0757-0.276 0.2081-0.35 0.3973-0.06 0.1545-0.071 0.3116-0.033 0.4716 0.036 0.1591 0.117 0.3071 0.244 0.4441 0.128 0.1348 0.299 0.2436 0.512 0.3264 0.204 0.0794 0.4 0.1104 0.587 0.0929s0.35-0.0756 0.488-0.1745c0.139-0.0989 0.24-0.2288 0.302-0.3898 0.055-0.1413 0.078-0.2928 0.068-0.4543-0.012-0.1624-0.062-0.3107-0.15-0.445l0.101-0.0582c0.092 0.1433 0.152 0.2829 0.179 0.4187 0.028 0.1358 0.032 0.2627 0.014 0.3807-0.016 0.1168-0.041 0.2197-0.075 0.3089-0.064 0.1631-0.151 0.3018-0.263 0.416-0.111 0.112-0.239 0.1978-0.382 0.2573-0.144 0.0564-0.297 0.0848-0.457 0.0851-0.162-0.0027-0.324-0.0357-0.487-0.0991-0.155-0.06-0.296-0.1411-0.424-0.2434-0.127-0.1045-0.231-0.2263-0.312-0.3654-0.081-0.1392-0.129-0.293-0.144-0.4614-0.014-0.1706 0.016-0.3505 0.09-0.5397 0.092-0.2392 0.244-0.4331 0.455-0.5817l-0.183-0.0521 0.068-0.1762 0.757 0.294-0.045 0.1175zm-0.15-1.4519c-0.029 0.0813-0.032 0.145-0.01 0.1912 0.023 0.0439 0.063 0.0795 0.12 0.1067 0.058 0.025 0.126 0.0527 0.204 0.0831l0.447 0.1736 0.093-0.268c0.086-0.2418 0.183-0.4207 0.291-0.5366 0.109-0.118 0.224-0.187 0.347-0.2069 0.121-0.0207 0.245-0.0061 0.374 0.0438 0.152 0.0591 0.267 0.1427 0.345 0.2506 0.076 0.1072 0.118 0.2285 0.125 0.3641 8e-3 0.1355-0.017 0.2773-0.075 0.4252l-0.37 0.9526-0.107-0.0418c0.029-0.0813 0.033-0.1436 0.012-0.1867-0.023-0.044-0.063-0.0795-0.12-0.1067-0.059-0.028-0.128-0.0572-0.206-0.0876l-1.41-0.5475c-0.091-0.0355-0.168-0.0692-0.231-0.1011l-0.078 0.24-0.143-0.0558 0.285-0.734 0.107 0.0418zm1.704 0.9209c0.113 0.0439 0.197 0.0801 0.251 0.1086 0.015-0.0339 0.034-0.0744 0.054-0.1214 0.02-0.05 0.038-0.0957 0.054-0.137 0.016-0.0435 0.027-0.0718 0.033-0.0848 0.065-0.1675 0.072-0.3197 0.023-0.4566-0.049-0.139-0.17-0.2461-0.363-0.3213-0.14-0.0541-0.257-0.0698-0.354-0.0472-0.096 0.0226-0.176 0.0704-0.239 0.1434-0.066 0.0722-0.118 0.1583-0.157 0.2583-0.025 0.0653-0.048 0.1255-0.067 0.1807-0.02 0.0522-0.038 0.1053-0.054 0.1592l0.819 0.3181zm0.967-1.3487-0.108-0.0418c0.028-0.0844 0.032-0.1481 0.011-0.1912-0.023-0.044-0.064-0.0785-0.121-0.1034-0.06-0.0281-0.127-0.0568-0.203-0.0864l-1.41-0.5475c-0.091-0.0355-0.168-0.0692-0.231-0.1011l-0.078 0.24-0.144-0.0558 0.285-0.734 0.108 0.0418c-0.029 0.0813-0.032 0.1451-0.01 0.1912 0.023 0.044 0.063 0.0795 0.12 0.1067 0.058 0.025 0.126 0.0527 0.204 0.0831l0.535 0.2079 0.095-0.2447-0.484-0.6575c-0.033-0.0452-0.067-0.0986-0.103-0.1602s-0.063-0.1209-0.081-0.1779c-0.011 0.0335-0.023 0.0676-0.036 0.1024-0.013 0.0326-0.025 0.0657-0.035 0.0991l-0.134-0.0519 0.273-0.7015 0.107 0.0419c-0.029 0.0938-0.045 0.1813-0.049 0.2624s0.012 0.166 0.047 0.255c0.034 0.088 0.096 0.1923 0.187 0.3127l0.384 0.5174c0.062-0.0487 0.125-0.0829 0.191-0.1026 0.063-0.0206 0.127-0.0407 0.192-0.0604l0.628-0.1766c0.141-0.0404 0.248-0.0766 0.32-0.1085 0.071-0.0349 0.121-0.0705 0.15-0.1068 0.03-0.0384 0.054-0.0805 0.072-0.1261l0.108 0.0418-0.155 0.398c-0.013 0.0326-0.064 0.0678-0.154 0.1055-0.089 0.0356-0.187 0.0689-0.294 0.0998l-0.68 0.1862c-0.071 0.0202-0.138 0.0417-0.202 0.0644-0.066 0.0219-0.119 0.0478-0.158 0.0776l-0.059 0.1612 0.721 0.28c0.116 0.0448 0.2 0.0815 0.254 0.11 0.013-0.04 0.026-0.08 0.04-0.12l0.039-0.12 0.143 0.0558-0.285 0.734zm0.788-2.028-0.108-0.0418c0.026-0.0653 0.028-0.1221 6e-3 -0.1704-0.021-0.0483-0.058-0.0952-0.11-0.1406-0.052-0.0475-0.112-0.1022-0.181-0.1639l-1.569-1.3831 0.031-0.0783 2.139-0.0064c0.052 4e-4 0.118 0.0036 0.199 0.0098 0.08 0.0061 0.144 0.021 0.192 0.0448 0.013-0.0378 0.025-0.0756 0.037-0.1134 0.012-0.0379 0.024-0.0757 0.036-0.1135l0.144 0.0558-0.29 0.7471-0.108-0.0418c0.03-0.0835 0.033-0.1451 8e-3 -0.1847s-0.062-0.0655-0.113-0.0775c-0.05-0.0121-0.098-0.0181-0.143-0.0181l-0.351-5e-3 -0.31 0.8559 0.305 0.2498c0.046 0.0355 0.082 0.0657 0.108 0.0906 0.026 0.0227 0.054 0.0488 0.085 0.0784 0.015-0.0443 0.03-0.0876 0.043-0.1298 0.015-0.0443 0.029-0.0876 0.043-0.1297l0.144 0.0557-0.237 0.6101zm-0.612-0.9285 0.293-0.7537-0.713-0.0104c-0.077-0.0023-0.153-3e-3 -0.228-0.0023-0.077-0.0023-0.154-0.0045-0.231-0.0068l-2e-3 0.0065c0.052 0.0454 0.104 0.0919 0.156 0.1395 0.052 0.0454 0.106 0.0923 0.159 0.1408l0.566 0.4864zm1.923-2.293c-0.03 0.0783-0.077 0.1403-0.139 0.1859-0.065 0.0449-0.132 0.0542-0.199 0.028-0.048-0.0186-0.082-0.0479-0.101-0.088-0.021-0.0431-0.023-0.089-7e-3 -0.1377 0.017-0.0561 0.048-0.0904 0.093-0.103 0.043-0.0134 0.08-0.0138 0.113-0.0011 0.037 0.0143 0.062 0.0366 0.075 0.0668 0.025-0.0106 0.041-0.0257 0.048-0.0453 0.014-0.037-1e-3 -0.0917-0.045-0.164-0.044-0.0745-0.122-0.16-0.235-0.2564-0.112-0.0963-0.262-0.1982-0.448-0.3055-0.188-0.1082-0.418-0.2151-0.69-0.3207l-0.486-0.1889-0.027 0.0686-0.079 0.2432-0.144-0.0558 0.627-1.6149 0.108 0.0418c-0.029 0.0813-0.032 0.1451-0.01 0.1912 0.023 0.044 0.063 0.0795 0.12 0.1067 0.058 0.025 0.126 0.0527 0.204 0.0831l1.387 0.5387c0.115 0.0447 0.199 0.0814 0.253 0.1099 0.013-0.04 0.027-0.08 0.04-0.12l0.039-0.12 0.143 0.0558-0.286 0.7373-0.108-0.0418c0.028-0.0844 0.031-0.1481 0.011-0.1912-0.023-0.0462-0.063-0.0817-0.12-0.1067-0.06-0.028-0.127-0.0568-0.203-0.0864l-1.648-0.64-0.175 0.4612c-0.031 0.0783-0.028 0.1357 8e-3 0.1722 0.034 0.0356 0.092 0.0721 0.175 0.1094 0.191 0.0744 0.378 0.1544 0.56 0.2401s0.351 0.1752 0.508 0.2686c0.154 0.0925 0.286 0.1876 0.396 0.2853s0.188 0.1968 0.234 0.2973c0.044 0.0996 0.046 0.1984 8e-3 0.2963zm0.376-3.6247c-0.096-0.0372-0.169-0.0508-0.221-0.0407-0.051 0.01-0.092 0.0416-0.123 0.0948s-0.062 0.1274-0.094 0.2226l-0.083 0.2419 0.747 0.2903c0.114 0.0439 0.197 0.0801 0.251 0.1086l0.232-0.6269c0.035-0.0966 0.052-0.1851 0.051-0.2657-3e-3 -0.0814-0.034-0.1561-0.093-0.224s-0.152-0.1267-0.281-0.1766l0.043-0.1109 0.629 0.2667-0.654 1.6835-0.108-0.0419c0.028-0.0843 0.031-0.148 0.011-0.1912-0.023-0.0439-0.064-0.0784-0.122-0.1034-0.059-0.028-0.126-0.0568-0.203-0.0864l-1.409-0.5475c-0.091-0.0355-0.168-0.0691-0.231-0.101l-0.078 0.24-0.144-0.0558 0.61-1.5693 0.577 0.2055-0.042 0.1077c-0.128-0.0499-0.233-0.0679-0.313-0.0541-0.083 0.013-0.148 0.0489-0.196 0.1079-0.049 0.056-0.089 0.1257-0.119 0.2092l-0.102 0.2831c-0.029 0.0813-0.036 0.1449-0.022 0.1906 0.015 0.0458 0.049 0.084 0.102 0.1147 0.052 0.0277 0.123 0.0588 0.212 0.0935l0.522 0.2027 0.241-0.612-0.289-0.0862 0.056-0.1435 0.685 0.2661-0.042 0.1077zm1.192-0.5659-0.107-0.0418c0.027-0.0844 0.031-0.1481 0.01-0.1912-0.023-0.044-0.063-0.0785-0.121-0.1035-0.059-0.028-0.127-0.0568-0.203-0.0863l-1.41-0.5476c-0.091-0.0355-0.168-0.0691-0.231-0.101l-0.078 0.24-0.143-0.0558 0.588-1.5138 0.577 0.2055-0.047 0.1207c-0.128-0.0498-0.233-0.0679-0.313-0.0541-0.083 0.013-0.148 0.0479-0.195 0.1047-0.049 0.0559-0.089 0.1256-0.119 0.2091l-0.086 0.2407c-0.029 0.0814-0.031 0.1444-5e-3 0.1892 0.022 0.044 0.062 0.0796 0.12 0.1067 0.057 0.0272 0.123 0.0556 0.199 0.0851l1.374 0.5336c0.115 0.0448 0.2 0.0814 0.254 0.1099 0.019-0.0574 0.039-0.1137 0.058-0.1689 0.02-0.0574 0.039-0.1137 0.058-0.1689l0.143 0.0557-0.323 0.832zm0.695-1.7874-0.108-0.0418c0.028-0.0843 0.031-0.1481 0.01-0.1912-0.023-0.044-0.063-0.0784-0.121-0.1034-0.059-0.028-0.127-0.0568-0.203-0.0864l-1.409-0.5475c-0.092-0.0355-0.169-0.0692-0.231-0.1011l-0.039 0.12c-0.013 0.04-0.027 0.08-0.04 0.12l-0.143-0.0558 0.285-0.734 0.108 0.0418c-0.029 0.0813-0.033 0.1451-0.011 0.1912 0.023 0.044 0.063 0.0795 0.12 0.1067 0.058 0.025 0.126 0.0527 0.205 0.0831l0.535 0.2079 0.095-0.2447-0.485-0.6575c-0.032-0.0452-0.066-0.0986-0.103-0.1602-0.036-0.0616-0.063-0.1209-0.081-0.1779-0.01 0.0335-0.022 0.0676-0.036 0.1024-0.012 0.0326-0.024 0.0657-0.034 0.0991l-0.134-0.0519 0.272-0.7014 0.108 0.0418c-0.029 0.0939-0.046 0.1813-0.049 0.2624-4e-3 0.0811 0.011 0.1661 0.047 0.255 0.033 0.088 0.095 0.1923 0.186 0.3127l0.385 0.5174c0.062-0.0487 0.125-0.0829 0.19-0.1026 0.063-0.0206 0.127-0.0407 0.193-0.0604l0.628-0.1766c0.14-0.0404 0.247-0.0765 0.32-0.1085 0.071-0.0349 0.121-0.0705 0.15-0.1068 0.03-0.0384 0.054-0.0804 0.072-0.1261l0.107 0.0418-0.154 0.398c-0.013 0.0327-0.064 0.0678-0.154 0.1056-0.089 0.0355-0.187 0.0688-0.294 0.0997l-0.681 0.1862c-0.07 0.0202-0.137 0.0417-0.201 0.0644-0.066 0.0219-0.119 0.0478-0.158 0.0776l-0.059 0.1612 0.721 0.2801c0.115 0.0447 0.2 0.0814 0.254 0.1099l0.078-0.24 0.144 0.0558-0.285 0.734zm1.326-3.2591c-0.08 0.2066-0.184 0.3703-0.311 0.4912-0.127 0.1208-0.267 0.2056-0.418 0.2544-0.153 0.0457-0.309 0.0629-0.467 0.0514-0.158-0.0114-0.308-0.0445-0.449-0.0995-0.137-0.0532-0.267-0.1297-0.388-0.2294-0.124-0.1006-0.226-0.2205-0.307-0.3597-0.081-0.1413-0.129-0.2966-0.146-0.4658-0.016-0.1715 0.013-0.3529 0.088-0.5443 0.077-0.2001 0.18-0.359 0.309-0.4769 0.128-0.1178 0.27-0.2003 0.426-0.2473 0.155-0.0501 0.311-0.0709 0.468-0.0625 0.157 0.0062 0.305 0.0359 0.442 0.0892 0.135 0.0523 0.264 0.1288 0.388 0.2294 0.121 0.0998 0.223 0.2207 0.305 0.3629 0.081 0.1392 0.13 0.2934 0.147 0.4626 0.017 0.1693-0.012 0.3507-0.087 0.5443zm-0.131-0.0585c0.052-0.1349 0.069-0.2633 0.052-0.3853-0.02-0.1229-0.065-0.2355-0.136-0.338-0.071-0.1054-0.16-0.1973-0.264-0.2755-0.106-0.0813-0.219-0.1451-0.339-0.1916-0.135-0.0524-0.276-0.0859-0.423-0.1004-0.147-0.0146-0.289-0.0071-0.425 0.0224-0.137 0.0295-0.259 0.0849-0.365 0.1661-0.108 0.0782-0.188 0.1848-0.241 0.3196-0.052 0.1349-0.069 0.2648-0.05 0.3898 0.02 0.1229 0.066 0.2371 0.137 0.3425 0.071 0.1024 0.159 0.1943 0.265 0.2755 0.105 0.0783 0.218 0.1411 0.34 0.1884 0.12 0.0465 0.251 0.0787 0.394 0.0968 0.144 0.0159 0.286 0.011 0.426-0.0146 0.141-0.0257 0.266-0.0783 0.377-0.1578 0.111-0.0796 0.195-0.1922 0.252-0.3379z"
          fill="#000"/>
    <path d="m147.18 80.187c-0.528 0.408-0.915 0.612-1.161 0.612-0.132 0-0.231-0.066-0.297-0.198-0.06-0.126-0.09-0.264-0.09-0.414 0-0.288 0.12-0.72 0.36-1.296 0.246-0.576 0.48-0.864 0.702-0.864 0.114 0 0.21 0.225 0.288 0.675 0.084 0.45 0.168 0.777 0.252 0.981 0.408-0.432 0.999-1.152 1.773-2.16 0.972-1.278 1.617-1.977 1.935-2.097 0.108-0.042 0.219-0.063 0.333-0.063s0.207 0.024 0.279 0.072c0.078 0.048 0.117 0.108 0.117 0.18 0 0.102-0.087 0.162-0.261 0.18-0.21 0.114-0.534 0.39-0.972 0.828-0.438 0.426-0.789 0.825-1.053 1.197-0.642 0.894-1.302 1.623-1.98 2.187 0.336 0.498 0.864 0.747 1.584 0.747 0.078 0 0.195-6e-3 0.351-0.018 1.668-0.156 2.85-0.879 3.546-2.169 0.282-0.516 0.423-1.026 0.423-1.53s-0.183-0.957-0.549-1.359c-0.294-0.33-0.615-0.534-0.963-0.612-0.342-0.078-0.693-0.117-1.053-0.117-0.924 0-1.776 0.213-2.556 0.639-0.822 0.45-1.233 0.954-1.233 1.512 0 0.15 0.039 0.273 0.117 0.369 0.084 0.096 0.141 0.15 0.171 0.162h-0.054c-0.156-0.03-0.294-0.108-0.414-0.234-0.132-0.156-0.198-0.321-0.198-0.495 0-0.6 0.375-1.116 1.125-1.548 0.756-0.432 1.641-0.648 2.655-0.648 0.468 0 0.948 0.054 1.44 0.162s0.939 0.366 1.341 0.774c0.462 0.48 0.693 1.023 0.693 1.629 0 0.45-0.132 0.915-0.396 1.395-0.456 0.828-1.137 1.434-2.043 1.818-0.726 0.306-1.509 0.459-2.349 0.459s-1.461-0.252-1.863-0.756zm-1.224-0.036c0 0.186 0.036 0.348 0.108 0.486 0.258-0.114 0.57-0.351 0.936-0.711-0.174-0.288-0.285-0.513-0.333-0.675-0.042-0.168-0.072-0.387-0.09-0.657-0.414 0.594-0.621 1.113-0.621 1.557zm1.287-2.52c6e-3 0 0.012-3e-3 0.018-9e-3 0 0.012-3e-3 0.018-9e-3 0.018l-9e-3 -9e-3z"
          fill="#000"/>
    <g filter="url(#a)">
        <path d="m180.5 5.4121v84l0.853 0.3413c4.243 1.6972 8.998 1.5738 13.147-0.3413v-84c-4.614 0.98877-9.386 0.98877-14 0z"
              fill="#F4EEEE"/>
        <path d="m180.5 5.4121v84l0.853 0.3413c4.243 1.6972 8.998 1.5738 13.147-0.3413v-84c-4.614 0.98877-9.386 0.98877-14 0z"
              stroke="#951414"/>
    </g>
    <path d="m182.96 47.412v-0.63c0.28 0 0.495-0.0747 0.644-0.224s0.275-0.35 0.378-0.602c0.103-0.2613 0.215-0.5507 0.336-0.868l2.828-7.742h0.56l3.066 7.854c0.075 0.1773 0.154 0.42 0.238 0.728 0.093 0.2987 0.14 0.5553 0.14 0.77 0.159-0.0093 0.313-0.0187 0.462-0.028 0.159-0.0187 0.308-0.028 0.448-0.028v0.77h-3.402v-0.616c0.327-0.0093 0.541-0.0793 0.644-0.21 0.112-0.14 0.154-0.308 0.126-0.504-0.019-0.196-0.065-0.392-0.14-0.588l-0.42-1.134-3.43 0.084-0.406 1.218c-0.131 0.3827-0.257 0.7233-0.378 1.022 0.168-0.0093 0.345-0.0187 0.532-0.028 0.196-0.0187 0.369-0.028 0.518-0.028v0.784h-2.744zm2.73-3.724h2.94l-0.882-2.366c-0.112-0.2987-0.219-0.602-0.322-0.91s-0.196-0.602-0.28-0.882h-0.014c-0.084 0.2333-0.173 0.49-0.266 0.77-0.084 0.28-0.187 0.5833-0.308 0.91l-0.868 2.478z"
          fill="#680707"/>
    <path d="m189.97 59.146c0-0.532-0.089-0.9333-0.266-1.204-0.168-0.28-0.392-0.4667-0.672-0.56-0.271-0.1027-0.565-0.1493-0.882-0.14l-0.98 0.028c-0.448 0.0093-0.723 0.1447-0.826 0.406-0.093 0.2613-0.14 0.644-0.14 1.148v1.988l1.036-0.028c1.092-0.0373 1.937 0.0653 2.534 0.308 0.607 0.2333 1.027 0.5693 1.26 1.008 0.243 0.4293 0.364 0.9193 0.364 1.47 0 0.6067-0.149 1.1247-0.448 1.554-0.289 0.42-0.686 0.742-1.19 0.966-0.495 0.2147-1.064 0.322-1.708 0.322h-4.312v-0.616c0.308-0.0093 0.527-0.07 0.658-0.182 0.14-0.1213 0.229-0.2987 0.266-0.532s0.056-0.5273 0.056-0.882v-5.782c0-0.4293 0.014-0.7933 0.042-1.092-0.159 0.0093-0.331 0.0187-0.518 0.028s-0.355 0.0187-0.504 0.028v-0.77h6.804l0.07 2.534h-0.644zm-3.766 5.418c0 0.252-5e-3 0.476-0.014 0.672 0 0.196-9e-3 0.3547-0.028 0.476 0.224 0.0093 0.485 0.014 0.784 0.014h0.658c0.672-0.0093 1.195-0.196 1.568-0.56s0.56-0.882 0.56-1.554c0-0.5693-0.103-1.008-0.308-1.316-0.205-0.3173-0.476-0.5367-0.812-0.658-0.327-0.1213-0.681-0.182-1.064-0.182-0.261 0-0.499 0.0047-0.714 0.014-0.205 0-0.415 0.0093-0.63 0.028v3.066z"
          fill="#680707"/>
    <path d="m183.74 84.412v-0.616c0.308-0.0093 0.527-0.07 0.658-0.182 0.14-0.1213 0.229-0.2987 0.266-0.532s0.056-0.5273 0.056-0.882v-5.712c0-0.504 0.014-0.8913 0.042-1.162-0.159 0.0093-0.331 0.0187-0.518 0.028s-0.355 0.0187-0.504 0.028v-0.77c0.56-0.0093 1.12-0.014 1.68-0.014 0.56-0.0093 1.134-0.014 1.722-0.014 1.101 0 1.965 0.2007 2.59 0.602 0.625 0.392 0.924 1.008 0.896 1.848-9e-3 0.4387-0.196 0.8633-0.56 1.274-0.364 0.4013-0.915 0.6767-1.652 0.826v0.028c0.999 0.0467 1.745 0.308 2.24 0.784 0.495 0.4667 0.742 1.036 0.742 1.708 0 0.588-0.149 1.0873-0.448 1.498-0.289 0.4107-0.686 0.7233-1.19 0.938-0.495 0.2147-1.064 0.322-1.708 0.322h-4.312zm2.464-5.404 0.924-0.028c0.485-0.0093 0.868-0.112 1.148-0.308 0.289-0.196 0.495-0.448 0.616-0.756s0.177-0.63 0.168-0.966c0-0.4667-0.098-0.8213-0.294-1.064s-0.439-0.4107-0.728-0.504-0.574-0.14-0.854-0.14c-0.383 0.0093-0.644 0.098-0.784 0.266-0.131 0.168-0.196 0.5133-0.196 1.036v2.464zm-0.042 4.704c0.224 0.0093 0.485 0.014 0.784 0.014h0.658c0.672-0.0093 1.199-0.1913 1.582-0.546s0.574-0.8493 0.574-1.484c0-0.5227-0.107-0.9287-0.322-1.218-0.205-0.2987-0.476-0.5087-0.812-0.63s-0.695-0.182-1.078-0.182c-0.504 0-0.952 0.0093-1.344 0.028v2.87c0 0.252-5e-3 0.476-0.014 0.672 0 0.196-9e-3 0.3547-0.028 0.476z"
          fill="#680707"/>
    <path d="m180.5 12.412 2.757 0.3939c2.815 0.402 5.672 0.402 8.486 0l2.757-0.3939v11l-2.757 0.3939c-2.814 0.402-5.671 0.402-8.486 0l-2.757-0.3939v-11z"
          fill="#951414"/>
    <defs>
        <filter id="e" x="89.039" y="1" width="110.05" height="97" color-interpolation-filters="sRGB"
                filterUnits="userSpaceOnUse">
            <feFlood flood-opacity="0" result="BackgroundImageFix"/>
            <feBlend in="SourceGraphic" in2="BackgroundImageFix" result="shape"/>
            <feColorMatrix in="SourceAlpha" result="hardAlpha" values="0 0 0 0 0 0 0 0 0 0 0 0 0 0 0 0 0 0 127 0"/>
            <feOffset dy="4"/>
            <feGaussianBlur stdDeviation="2"/>
            <feComposite in2="hardAlpha" k2="-1" k3="1" operator="arithmetic"/>
            <feColorMatrix values="0 0 0 0 0 0 0 0 0 0 0 0 0 0 0 0 0 0 0.25 0"/>
            <feBlend in2="shape" result="effect1_innerShadow"/>
        </filter>
        <filter id="d" x="1" y="1" width="73.948" height="97" color-interpolation-filters="sRGB"
                filterUnits="userSpaceOnUse">
            <feFlood flood-opacity="0" result="BackgroundImageFix"/>
            <feBlend in="SourceGraphic" in2="BackgroundImageFix" result="shape"/>
            <feColorMatrix in="SourceAlpha" result="hardAlpha" values="0 0 0 0 0 0 0 0 0 0 0 0 0 0 0 0 0 0 127 0"/>
            <feOffset dy="4"/>
            <feGaussianBlur stdDeviation="2"/>
            <feComposite in2="hardAlpha" k2="-1" k3="1" operator="arithmetic"/>
            <feColorMatrix values="0 0 0 0 0 0 0 0 0 0 0 0 0 0 0 0 0 0 0.25 0"/>
            <feBlend in2="shape" result="effect1_innerShadow"/>
        </filter>
        <filter id="c" x="208.09" y="1" width="200.91" height="97" color-interpolation-filters="sRGB"
                filterUnits="userSpaceOnUse">
            <feFlood flood-opacity="0" result="BackgroundImageFix"/>
            <feBlend in="SourceGraphic" in2="BackgroundImageFix" result="shape"/>
            <feColorMatrix in="SourceAlpha" result="hardAlpha" values="0 0 0 0 0 0 0 0 0 0 0 0 0 0 0 0 0 0 127 0"/>
            <feOffset dy="4"/>
            <feGaussianBlur stdDeviation="2"/>
            <feComposite in2="hardAlpha" k2="-1" k3="1" operator="arithmetic"/>
            <feColorMatrix values="0 0 0 0 0 0 0 0 0 0 0 0 0 0 0 0 0 0 0.25 0"/>
            <feBlend in2="shape" result="effect1_innerShadow"/>
        </filter>
        <filter id="b" x="135.97" y="11.849" width="47.675" height="89.503" color-interpolation-filters="sRGB"
                filterUnits="userSpaceOnUse">
            <feFlood flood-opacity="0" result="BackgroundImageFix"/>
            <feColorMatrix in="SourceAlpha" values="0 0 0 0 0 0 0 0 0 0 0 0 0 0 0 0 0 0 127 0"/>
            <feOffset dy="4"/>
            <feGaussianBlur stdDeviation="2"/>
            <feColorMatrix values="0 0 0 0 0 0 0 0 0 0 0 0 0 0 0 0 0 0 0.25 0"/>
            <feBlend in2="BackgroundImageFix" result="effect1_dropShadow"/>
            <feBlend in="SourceGraphic" in2="effect1_dropShadow" result="shape"/>
        </filter>
        <filter id="a" x="176" y="4.7936" width="23" height="94.649" color-interpolation-filters="sRGB"
                filterUnits="userSpaceOnUse">
            <feFlood flood-opacity="0" result="BackgroundImageFix"/>
            <feColorMatrix in="SourceAlpha" values="0 0 0 0 0 0 0 0 0 0 0 0 0 0 0 0 0 0 127 0"/>
            <feOffset dy="4"/>
            <feGaussianBlur stdDeviation="2"/>
            <feColorMatrix values="0 0 0 0 0 0 0 0 0 0 0 0 0 0 0 0 0 0 0.25 0"/>
            <feBlend in2="BackgroundImageFix" result="effect1_dropShadow"/>
            <feBlend in="SourceGraphic" in2="effect1_dropShadow" result="shape"/>
        </filter>
    </defs>
</svg>
